<?xml version="1.0" standalone="no"?>
<!DOCTYPE svg PUBLIC "-//W3C//DTD SVG 20010904//EN"
 "http://www.w3.org/TR/2001/REC-SVG-20010904/DTD/svg10.dtd">
<svg version="1.0" xmlns="http://www.w3.org/2000/svg"
 width="1024.000000pt" height="1024.000000pt" viewBox="0 0 1024.000000 1024.000000"
 preserveAspectRatio="xMidYMid meet">

<g transform="translate(0.000000,1024.000000) scale(0.100000,-0.100000)"
fill="#000000" stroke="none">
<path d="M4730 8300 l-25 -8 25 0 c14 0 34 3 45 8 l20 9 -20 -1 c-11 0 -31 -4
-45 -8z"/>
<path d="M4675 8293 c-34 -8 -38 -20 -5 -15 16 2 30 8 30 13 0 5 -1 8 -2 8 -2
-1 -12 -3 -23 -6z"/>
<path d="M4605 8275 c-5 -1 -30 -8 -55 -16 -25 -7 -49 -17 -55 -22 -6 -6 -1
-6 15 -1 14 4 44 13 67 19 23 6 45 14 49 18 7 7 -2 8 -21 2z"/>
<path d="M4939 8166 c-2 -2 -29 -6 -59 -9 -76 -8 -142 -18 -160 -24 -8 -3 -24
-7 -35 -8 -33 -4 -174 -34 -239 -51 -128 -33 -409 -143 -520 -203 -245 -135
-377 -228 -533 -376 -47 -44 -89 -81 -94 -83 -5 -2 -9 -10 -9 -18 0 -8 -7 -14
-15 -14 -8 0 -15 -3 -15 -7 0 -7 -31 -42 -129 -148 -34 -38 -106 -129 -177
-227 -39 -54 -121 -199 -168 -298 -36 -77 -107 -247 -110 -265 -1 -5 -10 -31
-20 -58 -11 -26 -16 -50 -13 -53 6 -6 47 82 47 101 0 8 4 15 8 17 9 3 62 129
62 146 0 5 7 15 14 22 13 10 14 7 10 -15 -10 -54 9 -44 43 22 46 87 143 236
150 229 3 -3 0 -13 -8 -23 -9 -11 -10 -14 -2 -9 7 4 18 16 24 28 8 15 8 19 0
14 -18 -12 -12 6 15 46 28 40 40 49 30 22 -3 -9 -2 -12 5 -9 5 4 7 15 4 24 -3
11 2 24 12 32 11 9 14 10 9 2 -4 -8 -2 -13 4 -13 7 0 9 7 6 16 -15 40 333 409
536 567 252 196 632 388 911 461 53 14 101 27 106 30 5 3 24 8 42 10 19 3 77
12 129 21 150 25 231 30 445 30 168 -1 218 -5 310 -24 226 -46 398 -102 541
-174 84 -42 290 -185 287 -198 -2 -5 3 -9 11 -9 16 0 153 -127 145 -134 -3 -3
-18 8 -34 24 -16 17 -35 30 -42 30 -8 0 -16 7 -19 15 -4 8 -13 15 -20 15 -8 0
-17 7 -20 15 -4 8 -12 15 -20 15 -8 0 -14 9 -14 20 0 11 -5 20 -11 20 -5 0 -7
-5 -4 -10 10 -17 -28 -6 -75 22 -54 31 -127 68 -135 68 -3 0 -5 -5 -5 -12 0
-6 3 -9 6 -5 9 9 125 -53 119 -63 -6 -10 -8 -9 -125 47 -97 47 -183 80 -222
87 -15 2 -35 9 -44 14 -10 6 -30 4 -56 -5 -35 -12 -46 -11 -93 3 -36 12 -52
21 -48 31 3 8 -2 13 -13 12 -11 0 -14 -3 -7 -5 7 -3 10 -11 7 -18 -4 -12 16
-22 48 -26 4 0 26 -7 48 -15 30 -11 39 -11 35 -2 -4 7 0 5 7 -4 7 -9 29 -20
48 -24 19 -4 52 -16 74 -27 21 -11 47 -18 57 -15 10 3 17 1 16 -5 -1 -5 18
-18 43 -27 24 -10 46 -23 48 -29 2 -7 -23 0 -55 14 -69 31 -210 84 -237 90
-10 2 -43 11 -74 19 -30 9 -68 18 -86 21 -54 8 -110 16 -131 18 -12 1 -26 6
-33 10 -7 4 -19 2 -27 -4 -8 -6 -18 -9 -23 -6 -20 12 -82 17 -82 7 0 -6 7 -7
17 -4 10 4 14 2 10 -4 -3 -5 -1 -10 6 -10 72 -4 155 -16 235 -34 24 -5 49 -6
55 -3 7 4 9 3 4 -1 -4 -5 52 -30 125 -55 234 -82 448 -209 583 -344 72 -72 67
-71 -20 3 -27 23 -83 63 -125 88 -41 25 -86 53 -100 63 -22 14 -139 69 -195
90 -11 4 -38 15 -60 23 -97 38 -276 82 -377 92 -29 4 -66 8 -83 10 -41 6 -333
6 -371 1 -18 -3 -63 -8 -100 -11 -105 -10 -220 -31 -324 -60 -52 -15 -114 -32
-137 -37 -24 -6 -43 -15 -43 -20 0 -11 1 -11 51 8 24 9 62 20 84 25 36 7 74
15 225 49 76 17 533 24 635 11 154 -21 410 -88 485 -127 14 -7 51 -24 83 -38
65 -28 187 -102 257 -154 79 -60 189 -157 181 -160 -5 -1 -19 6 -32 17 -69 58
-141 111 -199 147 -88 55 -316 164 -343 164 -8 0 -17 3 -21 8 -4 4 -12 8 -17
8 -5 1 -10 2 -11 4 -3 2 -31 8 -68 15 -14 2 -45 9 -70 16 -25 6 -54 12 -65 14
-11 2 -36 6 -55 9 -108 17 -395 23 -525 11 -163 -15 -251 -30 -260 -46 -4 -5
-11 -9 -16 -9 -6 0 -7 5 -4 10 4 6 -5 5 -19 -2 -24 -10 -36 -28 -18 -28 4 0
50 7 102 14 146 22 262 31 410 31 154 0 310 -13 310 -25 0 -5 -10 -6 -22 -3
-35 9 -403 10 -467 1 -31 -4 -80 -8 -109 -9 -29 -1 -55 -6 -58 -10 -3 -5 -17
-9 -32 -9 -15 0 -45 -7 -67 -15 -22 -8 -54 -14 -71 -15 -18 0 -39 -8 -49 -20
-17 -19 -17 -20 1 -21 48 -3 140 4 155 12 19 10 84 18 239 28 171 12 333 2
488 -28 201 -39 395 -119 574 -237 121 -79 302 -254 367 -354 53 -82 123 -225
150 -309 24 -74 24 -71 12 -71 -5 0 -23 36 -41 80 -108 267 -344 522 -611 660
-53 27 -99 47 -103 43 -3 -3 -6 -1 -6 6 0 7 -4 10 -9 6 -5 -3 -12 -1 -15 4 -4
5 -32 18 -64 27 -66 20 -56 18 -107 28 -22 4 -45 12 -52 18 -21 17 -38 4 -19
-15 12 -12 26 -15 43 -11 17 5 24 3 19 -4 -4 -6 2 -8 16 -5 19 4 20 3 8 -7
-12 -9 -11 -10 9 -5 15 5 21 3 17 -3 -3 -5 1 -12 9 -16 8 -3 15 0 15 7 0 9 2
9 8 -1 5 -6 46 -29 93 -50 118 -53 180 -86 209 -112 15 -13 -9 -4 -60 23 -85
44 -209 89 -347 126 -122 31 -81 7 62 -38 74 -23 135 -46 135 -51 0 -4 -53 8
-117 27 -202 60 -315 72 -628 63 -94 -2 -248 -24 -325 -47 -343 -100 -591
-220 -733 -355 -34 -34 -58 -37 -31 -5 24 29 -45 -34 -110 -99 -116 -117 -199
-211 -214 -241 -9 -18 -19 -33 -24 -33 -11 0 -9 11 7 40 8 14 14 30 15 35 0 6
-11 -10 -25 -33 -14 -24 -22 -49 -18 -55 3 -5 2 -7 -4 -4 -10 6 -73 -84 -73
-103 0 -5 -3 -10 -7 -12 -5 -1 -17 -21 -28 -43 -11 -22 -22 -42 -25 -45 -6 -6
-65 -130 -66 -139 0 -3 -7 -22 -16 -41 -9 -19 -27 -60 -41 -90 -40 -91 -71
-241 -69 -339 0 -17 -2 -20 -8 -11 -6 10 -10 8 -14 -11 -13 -60 -15 -60 -9 1
4 36 7 74 8 85 8 83 45 233 65 260 4 6 17 36 28 67 37 101 162 358 173 358 3
0 14 18 24 40 10 22 22 40 27 40 5 0 7 4 4 8 -3 5 4 15 15 22 10 8 19 22 19
32 0 10 4 18 9 18 5 0 12 8 16 19 3 10 13 28 23 39 9 11 24 30 32 42 20 30 46
61 66 82 10 10 14 21 10 25 -8 9 -76 -68 -70 -79 3 -4 2 -8 -3 -8 -4 0 -19
-17 -33 -38 -14 -20 -27 -39 -30 -42 -39 -38 -206 -337 -280 -502 -19 -43 -38
-78 -42 -78 -12 0 -9 11 12 55 10 22 16 43 14 47 -3 5 -1 8 5 8 5 0 15 16 22
35 7 19 17 35 23 35 5 0 7 3 3 6 -6 6 79 185 93 194 7 5 35 49 133 212 22 37
51 79 64 95 79 94 98 113 112 113 14 -1 13 -3 -1 -14 -10 -7 -18 -17 -18 -22
0 -4 16 7 35 26 20 19 33 40 31 47 -3 7 0 13 7 13 7 0 55 37 107 81 52 44 107
87 123 95 15 8 27 17 27 20 0 2 -9 0 -19 -6 -11 -5 -23 -10 -27 -10 -15 0 12
19 66 48 30 15 84 44 120 62 59 31 100 60 85 60 -3 0 -27 -11 -54 -25 -27 -13
-51 -21 -55 -18 -3 4 -6 2 -6 -4 0 -6 -28 -25 -62 -43 -35 -18 -70 -38 -78
-45 -8 -7 -35 -22 -60 -34 -69 -33 -147 -91 -122 -91 6 0 13 4 16 9 13 21 118
82 134 78 15 -3 15 -5 -3 -12 -23 -10 -97 -59 -117 -78 -7 -7 -40 -34 -73 -59
-33 -26 -77 -65 -98 -88 -31 -34 -41 -39 -53 -29 -12 10 -14 8 -12 -12 2 -19
-1 -23 -17 -21 -16 2 -17 1 -5 -7 13 -9 12 -13 -7 -31 -12 -11 -27 -20 -33
-20 -6 0 -8 -5 -5 -11 4 -5 -2 -18 -12 -27 -28 -26 -55 -71 -48 -83 4 -5 1 -8
-7 -7 -7 2 -12 -5 -12 -14 1 -10 -2 -16 -6 -13 -15 9 -23 -17 -9 -27 11 -8 10
-9 -3 -4 -11 3 -19 -2 -23 -15 -4 -10 -11 -19 -17 -19 -6 0 -6 -6 2 -15 10
-12 10 -15 -3 -15 -16 0 -30 -26 -22 -41 4 -5 -1 -6 -9 -3 -11 4 -16 0 -16
-11 0 -9 -18 -47 -40 -84 -22 -37 -40 -73 -40 -79 0 -7 -4 -12 -8 -12 -4 0 -8
-8 -9 -17 -1 -10 -21 -74 -46 -143 -53 -148 -65 -209 -46 -221 11 -7 10 -9 -3
-9 -10 0 -18 -4 -18 -10 0 -5 5 -10 11 -10 5 0 7 -5 3 -12 -8 -13 -9 -21 -19
-128 -18 -216 6 -459 70 -679 95 -330 263 -619 520 -896 100 -108 100 -108
105 -77 l5 30 69 -64 c92 -87 205 -174 355 -274 116 -77 337 -199 389 -215
l22 -6 0 510 0 511 196 0 195 0 53 -52 c69 -70 130 -162 266 -403 427 -754
882 -1189 1427 -1364 70 -23 142 -46 160 -52 18 -5 40 -11 50 -13 143 -27 189
-31 353 -30 190 0 341 16 360 39 6 7 7 20 4 30 -6 15 -14 16 -58 9 -98 -14
-345 -20 -438 -9 -74 9 -191 33 -225 46 -15 6 -29 10 -31 9 -1 0 -17 2 -35 5
-45 9 -196 64 -176 64 13 1 82 -19 129 -36 8 -3 20 -7 25 -9 187 -49 355 -70
485 -59 92 7 177 19 185 27 2 2 -64 5 -148 6 -154 1 -205 5 -344 27 -24 4 -44
6 -45 5 -2 -1 -16 4 -33 10 -16 7 -41 14 -55 16 -14 3 -72 21 -129 40 -102 35
-171 70 -171 88 0 5 9 1 20 -9 11 -10 23 -15 26 -12 4 4 19 -2 33 -12 14 -10
31 -16 38 -14 7 2 27 -2 45 -11 29 -12 72 -28 88 -31 8 -1 85 -18 90 -20 158
-42 559 -38 643 6 10 6 34 12 54 15 20 2 39 7 42 11 8 8 -87 -5 -102 -14 -12
-7 -20 -8 -177 -16 -120 -6 -123 -3 -7 8 37 4 67 10 67 13 0 4 -44 6 -97 6
-54 -1 -104 3 -110 8 -9 7 -13 7 -13 -1 0 -6 -5 -11 -11 -11 -5 0 -7 5 -3 12
5 8 2 9 -9 5 -10 -3 -17 -2 -17 3 0 11 48 26 68 22 6 -2 12 2 12 9 0 6 -8 9
-19 6 -10 -2 -25 -1 -32 4 -11 7 -10 9 4 9 9 0 17 6 17 13 0 8 3 8 9 -2 12
-19 138 -7 163 16 11 10 18 12 18 5 0 -7 7 -12 16 -12 8 0 13 4 10 8 -3 4 10
7 27 6 18 -1 36 1 42 5 5 4 24 8 40 9 36 4 245 77 295 103 19 11 38 19 43 19
17 0 214 120 236 144 45 48 -1 37 -107 -26 -87 -51 -225 -120 -260 -129 -4 -1
-17 -5 -30 -10 -13 -5 -29 -9 -37 -9 -7 0 -15 -4 -17 -10 -1 -5 -46 -18 -98
-29 -145 -29 -160 -31 -160 -21 0 6 8 11 18 11 74 5 187 33 257 64 17 7 64 28
105 45 41 18 82 38 90 45 8 7 30 18 48 26 17 8 32 17 32 21 0 5 5 8 11 8 7 0
22 11 34 24 13 14 25 23 27 21 2 -2 17 7 33 20 26 21 20 19 -40 -9 -91 -44
-124 -58 -220 -96 -44 -17 -100 -39 -125 -49 -45 -19 -127 -39 -185 -47 -134
-18 -182 -21 -265 -18 -181 6 -337 36 -495 95 -66 24 -70 37 -4 14 182 -65
468 -81 652 -36 109 26 215 79 280 139 52 49 91 122 83 157 -3 16 13 33 82 82
104 75 153 118 177 157 l19 28 -50 -33 c-27 -19 -51 -36 -54 -39 -3 -3 -57
-40 -120 -81 -113 -75 -231 -139 -280 -154 -24 -6 -24 -6 -5 7 11 7 49 27 85
43 57 26 192 112 243 155 10 8 28 23 39 33 12 9 24 17 27 17 10 1 64 51 59 55
-2 3 -13 -3 -24 -13 -10 -9 -35 -25 -54 -34 -19 -10 -55 -30 -80 -44 -41 -25
-122 -69 -211 -116 -20 -10 -45 -20 -55 -22 -11 -3 -28 -7 -39 -11 -11 -4 3 7
32 24 29 17 55 31 58 31 4 0 21 11 39 25 18 14 36 25 40 25 18 0 187 123 241
174 l30 29 -37 -26 c-20 -15 -41 -27 -47 -27 -6 0 -11 -4 -11 -8 0 -4 -13 -16
-30 -25 -16 -10 -30 -16 -30 -13 0 3 -8 -2 -18 -11 -20 -19 -78 -53 -89 -52
-3 0 -9 -3 -12 -8 -10 -13 -136 -73 -154 -73 -10 0 -33 -7 -52 -14 -19 -8 -35
-12 -35 -8 0 6 96 49 125 55 9 2 102 54 114 64 2 2 2 6 -1 9 -3 3 -24 -4 -47
-15 -73 -38 -129 -53 -149 -41 -15 10 -15 11 5 7 15 -3 20 -1 16 9 -3 9 2 12
16 9 14 -2 19 0 15 7 -5 7 2 9 20 6 15 -3 24 -3 22 0 -3 3 14 15 39 27 87 44
242 155 217 155 -5 0 -19 -9 -32 -20 -12 -11 -31 -22 -41 -25 -11 -4 -19 -10
-19 -15 0 -7 -153 -87 -172 -90 -4 0 -31 -12 -60 -25 -29 -14 -62 -25 -73 -25
-13 1 -7 7 20 20 22 11 44 19 48 20 8 0 123 72 143 89 7 5 14 7 18 4 3 -3 8 2
12 11 3 9 10 13 15 10 5 -3 9 0 9 6 0 6 5 8 12 4 7 -4 8 -3 4 4 -4 7 -1 12 8
12 8 0 18 5 21 10 12 20 -14 9 -61 -25 -66 -47 -146 -90 -163 -86 -7 1 -36 -9
-65 -23 -28 -13 -87 -34 -131 -45 -131 -34 -139 -35 -131 -22 4 6 2 11 -5 11
-7 0 -9 3 -6 6 4 4 13 1 22 -6 12 -10 15 -9 16 6 0 11 3 14 6 7 2 -7 12 -13
21 -13 15 0 15 2 2 10 -12 8 -9 9 10 7 13 -2 30 2 37 9 7 7 21 11 30 10 10 -2
24 4 31 13 8 9 11 10 7 4 -3 -7 -4 -13 -2 -13 12 0 85 44 112 67 27 23 27 24
4 10 -58 -35 -215 -81 -224 -66 -3 4 -17 4 -31 -1 -31 -12 -64 -13 -64 -2 0 7
37 13 98 16 12 1 22 4 22 9 0 4 5 7 11 7 5 0 7 -4 4 -10 -3 -5 -1 -10 4 -10 6
0 11 6 11 14 0 8 36 26 93 46 50 17 112 42 136 56 24 13 47 21 52 18 5 -3 8 0
7 7 -2 7 20 24 48 38 49 25 141 91 194 138 128 114 290 296 290 326 0 4 -22
-19 -50 -52 -212 -255 -457 -424 -741 -511 -94 -28 -259 -38 -366 -20 -273 44
-470 169 -729 465 -114 129 -323 433 -302 439 201 54 334 114 500 224 133 88
343 292 413 401 168 261 239 438 291 726 29 159 26 486 -6 635 -6 25 -14 68
-19 95 -14 73 -56 200 -117 353 -89 222 -183 382 -224 382 -21 0 -50 -36 -50
-62 0 -9 31 -79 69 -155 75 -151 139 -321 171 -453 24 -101 39 -210 30 -210
-4 0 -17 39 -30 88 -61 231 -193 513 -320 683 -153 205 -316 348 -545 480
-109 62 -284 144 -292 136 -2 -3 43 -27 99 -55 57 -28 159 -87 228 -133 100
-66 152 -110 263 -221 75 -77 137 -145 137 -152 0 -7 9 -21 21 -32 11 -10 34
-39 51 -64 l29 -45 -28 30 c-16 17 -37 41 -46 55 -32 46 -191 201 -278 271
-316 252 -655 388 -1109 444 -101 12 -415 6 -530 -11 -25 -4 -54 -8 -65 -9
-41 -6 -97 -15 -225 -40 -73 -15 -135 -24 -138 -21 -3 3 2 6 10 6 9 0 29 7 44
15 16 8 36 15 44 15 8 0 76 16 151 34 74 19 163 38 197 42 34 3 62 11 62 15 0
10 -4 11 -11 5z m941 -332 c14 -8 17 -13 7 -10 -10 3 -27 6 -38 6 -10 0 -19 5
-19 10 0 14 21 12 50 -6z m100 -31 c0 -16 0 -16 -41 1 l-34 15 38 -1 c24 -1
37 -6 37 -15z m47 -18 c0 -8 -4 -12 -9 -9 -5 3 -6 10 -3 15 9 13 12 11 12 -6z
m43 -18 c10 -4 8 -6 -7 -6 -16 -1 -23 5 -23 17 0 10 3 13 8 6 4 -6 14 -14 22
-17z m66 -23 c19 -15 19 -15 -1 -6 -11 5 -27 12 -35 15 -13 5 -13 6 1 6 8 1
24 -6 35 -15z m177 -53 c21 -10 50 -28 65 -40 15 -11 39 -30 55 -42 47 -35 29
-42 -20 -7 -27 18 -51 37 -54 41 -3 5 -8 8 -10 6 -6 -4 -79 45 -79 54 0 10 1
10 43 -12z m-121 -40 c58 -33 78 -51 59 -51 -6 0 -11 4 -11 8 0 5 -21 19 -47
31 -51 24 -115 68 -78 54 11 -5 46 -23 77 -42z m103 -71 c3 -6 -1 -7 -9 -4
-18 7 -21 14 -7 14 6 0 13 -4 16 -10z m202 -25 c8 -9 13 -19 10 -22 -6 -5 -37
21 -37 31 0 10 11 6 27 -9z m78 -25 c3 -5 2 -10 -4 -10 -5 0 -13 5 -16 10 -3
6 -2 10 4 10 5 0 13 -4 16 -10z m30 -30 c3 -5 1 -10 -4 -10 -6 0 -11 5 -11 10
0 6 2 10 4 10 3 0 8 -4 11 -10z m-125 -181 c0 -6 -4 -7 -10 -4 -5 3 -10 11
-10 16 0 6 5 7 10 4 6 -3 10 -11 10 -16z m-965 -34 c39 -9 81 -17 95 -20 31
-5 79 -23 63 -24 -6 -1 -45 6 -85 15 -114 25 -484 22 -648 -5 -106 -18 -228
-51 -265 -73 -5 -3 -28 -11 -50 -18 -46 -15 -111 -43 -240 -105 -92 -44 -357
-240 -420 -311 -27 -30 -55 -45 -55 -28 0 26 80 113 160 173 19 14 44 34 55
45 51 47 339 216 369 216 3 0 29 11 58 24 120 54 298 103 448 122 133 17 417
11 515 -11z m202 -51 c-3 -3 -12 -4 -19 -1 -8 3 -5 6 6 6 11 1 17 -2 13 -5z
m-374 -41 c-29 -2 -78 -2 -110 0 -32 2 -8 3 52 3 61 0 87 -1 58 -3z m-250 -10
c-7 -2 -19 -2 -25 0 -7 3 -2 5 12 5 14 0 19 -2 13 -5z m422 -3 c3 -5 1 -10 -4
-10 -6 0 -11 5 -11 10 0 6 2 10 4 10 3 0 8 -4 11 -10z m-595 -20 c0 -5 -5 -10
-11 -10 -5 0 -7 5 -4 10 3 6 8 10 11 10 2 0 4 -4 4 -10z m-85 -19 c-6 -5 -23
-12 -40 -15 -28 -6 -28 -5 5 8 43 18 46 18 35 7z m42 3 c-3 -3 -12 -4 -19 -1
-8 3 -5 6 6 6 11 1 17 -2 13 -5z m523 -4 c104 -12 137 -17 220 -36 36 -9 72
-17 80 -19 8 -2 56 -22 105 -46 245 -115 412 -285 500 -509 26 -66 55 -241 50
-305 -14 -187 -75 -344 -186 -476 -48 -58 -175 -154 -274 -209 -38 -21 -133
-59 -210 -85 -124 -41 -179 -65 -150 -65 26 0 180 42 260 70 109 39 184 76
288 143 43 27 80 47 83 44 14 -13 -155 -136 -261 -190 -70 -34 -297 -111 -365
-122 -19 -3 -53 -11 -75 -17 -58 -16 -120 -19 -415 -22 -277 -3 -360 0 -360
15 0 5 30 9 68 9 97 1 267 7 267 9 0 1 43 4 95 6 52 2 113 6 135 9 22 3 56 8
75 11 19 2 60 7 90 11 63 7 65 8 56 30 -4 11 -11 14 -24 8 -21 -11 -376 -14
-452 -5 -37 4 20 9 175 13 227 6 327 19 354 46 11 11 2 12 -55 5 -80 -8 -650
-7 -664 2 -6 4 -10 300 -10 805 l0 799 43 11 c23 6 65 17 92 25 51 14 175 33
255 38 93 7 127 6 210 -3z m-650 -30 c-8 -5 -19 -10 -25 -10 -5 0 -3 5 5 10 8
5 20 10 25 10 6 0 3 -5 -5 -10z m-140 -50 c-8 -5 -19 -10 -25 -10 -5 0 -3 5 5
10 8 5 20 10 25 10 6 0 3 -5 -5 -10z m-710 -255 c0 -2 -11 -24 -25 -49 -27
-49 -31 -66 -14 -66 6 0 9 6 6 13 -3 8 3 13 14 13 33 0 34 -40 2 -83 -15 -21
-30 -40 -33 -43 -12 -11 -79 -120 -118 -190 -74 -138 -89 -168 -96 -194 -9
-37 6 -32 23 7 8 17 29 56 48 85 18 29 33 56 33 61 0 5 7 14 15 21 8 7 13 16
10 20 -3 5 -2 10 3 12 4 1 23 23 42 48 53 68 64 80 72 80 12 0 10 -108 -2
-130 -6 -12 -6 -36 0 -69 6 -30 10 -371 10 -829 1 -1362 2 -1266 -15 -1252
-26 22 -190 242 -234 315 -43 71 -151 288 -189 380 -19 44 -31 94 -48 191 -2
16 -9 43 -15 61 -10 32 -13 45 -24 118 -14 94 -17 148 -18 285 -1 139 7 257
19 310 3 14 7 38 10 53 4 27 14 56 52 137 8 19 16 37 16 40 1 3 4 10 7 15 4 6
12 28 19 50 7 22 19 48 28 58 8 9 12 17 8 17 -3 0 5 17 18 38 13 21 37 65 54
97 17 33 41 73 54 88 13 16 46 56 73 90 28 34 71 83 96 108 25 25 54 58 64 72
15 24 35 36 35 22z m380 -45 c0 -5 -4 -10 -10 -10 -5 0 -10 5 -10 10 0 6 5 10
10 10 6 0 10 -4 10 -10z m2941 -590 l-10 -55 4 55 c3 30 6 84 7 120 l2 65 3
-65 c2 -36 -1 -90 -6 -120z m-286 -100 c-52 -201 -197 -457 -348 -617 -200
-211 -488 -375 -782 -445 -44 -10 -89 -21 -100 -23 -107 -27 -324 -39 -491
-29 l-139 9 240 6 c170 4 259 10 305 22 36 9 101 23 144 32 333 65 666 269
889 543 102 125 212 328 263 484 32 100 43 110 19 18z m-3575 46 c0 -2 -7 -17
-15 -32 -16 -30 -19 -25 -9 14 5 18 24 33 24 18z m3839 -70 c-9 -8 -10 -7 -5
7 3 10 7 26 7 35 1 9 4 6 6 -7 3 -13 -1 -28 -8 -35z m-2 -43 c-13 -77 -20
-103 -29 -103 -5 0 -6 -10 -3 -21 5 -14 3 -19 -3 -15 -6 4 -8 -2 -4 -16 3 -14
1 -19 -6 -14 -8 5 -10 2 -6 -8 16 -41 -155 -389 -241 -492 -5 -7 -21 -27 -35
-46 -70 -92 -194 -213 -220 -213 -16 0 -56 -27 -110 -75 -34 -30 -179 -114
-186 -108 -2 3 13 13 33 24 21 10 40 21 43 24 3 3 25 19 50 35 73 50 347 331
334 344 -3 3 -17 -10 -32 -29 -33 -42 -99 -108 -177 -175 -31 -27 -70 -61 -86
-75 -26 -23 -296 -168 -354 -190 -46 -18 -26 -1 33 26 31 15 76 40 100 57 24
16 62 40 85 53 47 27 25 34 -24 8 -17 -8 -33 -13 -35 -11 -6 6 72 47 89 47 20
1 64 42 49 47 -13 5 -7 23 9 23 6 0 7 -4 4 -10 -12 -19 8 -10 42 20 25 23 29
30 16 30 -14 0 -9 7 17 30 19 16 36 27 39 24 2 -2 -4 -11 -15 -19 -10 -8 -14
-15 -8 -15 5 0 23 13 39 30 15 16 32 27 37 24 11 -7 10 10 -2 22 -7 7 4 23 31
49 23 22 39 34 35 28 -5 -9 -2 -11 9 -6 13 4 14 8 4 14 -10 6 -9 12 6 28 10
12 21 19 24 16 3 -4 -1 -10 -9 -15 -8 -5 -12 -12 -9 -15 4 -3 25 19 49 50 23
30 47 55 52 55 5 0 7 4 3 9 -3 5 -1 12 5 16 5 3 10 11 10 16 0 6 -4 7 -10 4
-5 -3 -10 -4 -10 0 0 3 12 10 26 15 18 7 24 15 20 26 -3 8 -2 13 3 10 8 -5 71
87 71 105 0 5 4 9 9 9 5 0 15 16 22 34 7 19 16 33 20 30 11 -6 20 12 24 48 5
35 10 42 23 34 11 -7 -43 -146 -61 -158 -7 -4 -8 -8 -1 -8 5 0 16 6 24 13 8 6
7 3 -3 -9 -9 -11 -17 -26 -17 -34 0 -10 -4 -10 -17 1 -16 13 -17 12 -4 -4 13
-16 12 -22 -3 -50 l-18 -32 21 25 c11 14 31 46 43 73 12 26 26 47 29 47 4 0 5
9 2 20 -3 12 1 22 11 26 9 3 13 10 10 15 -3 5 0 9 6 9 6 0 8 5 5 10 -3 6 -1
10 5 10 7 0 9 7 6 15 -3 9 1 18 9 21 8 3 11 12 8 21 -5 12 -3 14 7 8 10 -6 12
-4 7 9 -4 9 -3 15 2 12 4 -3 15 22 25 54 9 33 20 60 24 60 4 0 9 9 10 20 1 11
3 29 4 40 1 11 6 20 11 20 4 0 6 -12 4 -27z m-131 -200 c-3 -4 -6 -1 -6 6 0 7
-4 9 -10 6 -6 -4 -7 1 -3 11 6 15 7 15 15 -1 6 -9 7 -19 4 -22z m-171 -93
c-14 -29 -28 -50 -31 -48 -2 3 9 27 24 56 35 66 41 60 7 -8z m-3564 -138 c0
-81 4 -180 8 -220 4 -40 4 -75 1 -77 -4 -2 -7 1 -8 8 0 7 -5 73 -11 148 -13
162 -13 301 0 293 5 -3 9 -71 10 -152z m3538 17 c-75 -119 -139 -198 -206
-254 -32 -26 -65 -55 -73 -64 -21 -23 -97 -81 -105 -81 -3 0 -35 -20 -70 -45
-59 -43 -252 -141 -260 -133 -2 2 47 29 108 61 130 66 291 183 397 288 98 96
160 177 118 153 -8 -4 -10 -3 -5 2 5 5 12 9 15 9 16 1 32 17 32 33 0 13 -2 13
-15 -4 -9 -10 -5 2 7 29 12 26 26 47 30 47 5 0 1 -11 -8 -25 -9 -14 -14 -28
-11 -31 7 -8 52 41 73 79 8 16 18 27 20 24 3 -3 -19 -42 -47 -88z m-3574 -24
c0 -25 -3 -45 -7 -45 -5 0 -8 20 -8 45 0 25 3 45 8 45 4 0 7 -20 7 -45z m3458
-49 c-43 -75 -249 -276 -282 -276 -6 0 -11 -4 -11 -9 0 -17 -279 -191 -306
-191 -4 0 34 25 86 56 106 62 168 102 189 122 8 8 30 24 50 36 42 27 191 171
241 234 34 42 48 54 33 28z m67 -66 c0 -5 -5 -10 -11 -10 -5 0 -7 5 -4 10 3 6
8 10 11 10 2 0 4 -4 4 -10z m-29 -38 c-12 -22 -41 -48 -41 -36 0 8 40 54 47
54 2 0 -1 -8 -6 -18z m-1866 -2 c3 -5 1 -10 -4 -10 -6 0 -11 5 -11 10 0 6 2
10 4 10 3 0 8 -4 11 -10z m-245 -99 c0 -6 -17 -7 -37 -4 -52 8 -54 13 -5 13
23 0 42 -4 42 -9z m-1320 -90 c5 -19 5 -31 -1 -31 -5 0 -9 6 -9 13 0 6 -3 23
-7 37 -9 36 6 19 17 -19z m3254 -6 c-4 -8 -8 -15 -10 -15 -2 0 -4 7 -4 15 0 8
4 15 10 15 5 0 7 -7 4 -15z m-1289 -13 c-3 -3 -11 0 -18 7 -9 10 -8 11 6 5 10
-3 15 -9 12 -12z m-1940 -88 c7 -52 -10 -23 -19 31 -5 29 -4 35 4 24 5 -9 12
-34 15 -55z m3125 6 c-8 -5 -19 -10 -25 -10 -5 0 -3 5 5 10 8 5 20 10 25 10 6
0 3 -5 -5 -10z m-70 -50 c0 -5 -5 -10 -11 -10 -5 0 -7 5 -4 10 3 6 8 10 11 10
2 0 4 -4 4 -10z m-3040 -20 c0 -11 -2 -20 -4 -20 -2 0 -6 9 -9 20 -3 11 -1 20
4 20 5 0 9 -9 9 -20z m3224 -22 c-20 -18 -44 -40 -52 -48 -21 -21 -65 -50 -77
-50 -5 0 2 8 16 18 15 9 52 41 84 70 31 29 59 51 62 48 3 -3 -12 -20 -33 -38z
m-489 2 c-3 -5 -12 -10 -18 -10 -7 0 -6 4 3 10 19 12 23 12 15 0z m175 -74 c0
-2 -7 -7 -16 -10 -8 -3 -12 -2 -9 4 6 10 25 14 25 6z m16 -81 c-11 -8 -24 -15
-30 -15 -5 0 -1 7 10 15 10 8 24 14 29 14 6 0 1 -6 -9 -14z m1304 -1205 c0 -5
-8 -10 -17 -10 -15 0 -16 2 -3 10 19 12 20 12 20 0z m-233 -16 c-3 -3 -12 -4
-19 -1 -8 3 -5 6 6 6 11 1 17 -2 13 -5z m163 -3 c0 -5 -9 -11 -20 -14 -11 -3
-20 -1 -20 3 0 5 8 11 18 13 9 3 18 5 20 6 1 0 2 -3 2 -8z m-55 -11 c3 -5 -1
-10 -10 -10 -9 0 -13 5 -10 10 3 6 8 10 10 10 2 0 7 -4 10 -10z m175 1 c0 -14
-29 -21 -36 -9 -4 7 -3 8 4 4 7 -4 12 -2 12 3 0 6 5 11 10 11 6 0 10 -4 10 -9z
m-229 -24 c-10 -9 -11 -8 -5 6 3 10 9 15 12 12 3 -3 0 -11 -7 -18z m183 5 c2
-4 -4 -8 -14 -8 -10 0 -16 4 -14 8 3 4 9 8 14 8 5 0 11 -4 14 -8z m-84 -20 c0
-4 -9 -8 -19 -8 -11 0 -17 4 -15 8 3 4 12 8 20 8 8 0 14 -4 14 -8z m157 -78
c-3 -3 -12 -4 -19 -1 -8 3 -5 6 6 6 11 1 17 -2 13 -5z m-12 -79 c-16 -8 -39
-14 -50 -14 -11 1 -2 7 20 14 52 17 68 17 30 0z m-65 -375 c0 -6 -26 -9 -62
-8 l-63 1 55 7 c30 4 58 7 63 8 4 1 7 -2 7 -8z m-200 -6 c0 -8 -19 -13 -24 -6
-3 5 1 9 9 9 8 0 15 -2 15 -3z m-670 -44 c0 -5 -4 -10 -10 -10 -5 0 -10 5 -10
10 0 6 5 10 10 10 6 0 10 -4 10 -10z m24 -16 c3 -8 2 -12 -4 -9 -6 3 -10 10
-10 16 0 14 7 11 14 -7z m622 -26 c5 -7 2 -9 -8 -5 -21 8 -30 -3 -17 -20 9
-11 0 -13 -52 -13 -35 0 -71 5 -79 10 -10 7 2 8 40 6 51 -4 86 7 76 23 -3 4 4
7 14 8 11 1 23 -3 26 -9z m-231 -18 c3 -6 -1 -7 -9 -4 -18 7 -21 14 -7 14 6 0
13 -4 16 -10z m48 -7 c-7 -2 -19 -2 -25 0 -7 3 -2 5 12 5 14 0 19 -2 13 -5z
m-427 -17 c19 -15 19 -15 -1 -11 -11 2 -23 4 -27 4 -11 1 -10 21 0 21 5 0 17
-6 28 -14z m79 -36 c3 -6 -1 -7 -9 -4 -18 7 -21 14 -7 14 6 0 13 -4 16 -10z"/>
<path d="M3783 6627 c-42 -63 -60 -97 -49 -97 3 0 18 21 33 48 15 26 38 58 50
72 23 25 29 40 16 40 -5 0 -27 -28 -50 -63z"/>
<path d="M3698 6559 c-10 -5 -18 -14 -18 -19 0 -6 -9 -20 -20 -33 -45 -52
-170 -291 -200 -382 -7 -22 -19 -49 -26 -60 -29 -45 -55 -218 -60 -400 -6
-214 -6 -187 -1 -260 7 -80 18 -147 27 -165 9 -17 39 -150 46 -196 8 -68 80
-233 158 -367 51 -87 39 -41 -27 100 -36 76 -70 159 -77 183 -6 25 -16 59 -21
75 -15 48 -58 236 -64 280 -10 73 -14 149 -15 300 -1 172 4 243 25 335 8 36
17 76 21 90 3 13 10 30 16 37 6 7 7 13 3 13 -4 0 -3 6 2 13 12 14 38 89 35
100 -1 4 2 7 7 7 7 0 30 45 35 70 1 3 11 21 24 41 12 20 22 41 22 47 0 6 4 12
8 14 4 2 25 33 45 70 21 37 42 70 47 73 9 6 34 45 28 45 -2 0 -11 -5 -20 -11z"/>
<path d="M3656 6423 c-6 -14 -5 -15 5 -6 7 7 10 15 7 18 -3 3 -9 -2 -12 -12z"/>
<path d="M3853 6265 c0 -27 2 -38 4 -22 2 15 2 37 0 50 -2 12 -4 0 -4 -28z"/>
<path d="M3571 6274 c-17 -38 -6 -41 12 -5 9 17 12 31 8 31 -4 0 -13 -12 -20
-26z"/>
<path d="M3851 6174 c0 -11 3 -14 6 -6 3 7 2 16 -1 19 -3 4 -6 -2 -5 -13z"/>
<path d="M3612 6145 c-17 -37 -14 -45 4 -12 9 16 14 31 11 33 -2 2 -9 -7 -15
-21z"/>
<path d="M3851 6134 c0 -11 3 -14 6 -6 3 7 2 16 -1 19 -3 4 -6 -2 -5 -13z"/>
<path d="M3490 6059 c0 -5 5 -7 10 -4 6 3 10 8 10 11 0 2 -4 4 -10 4 -5 0 -10
-5 -10 -11z"/>
<path d="M3427 5810 c-3 -11 -1 -23 4 -26 5 -3 9 6 9 20 0 31 -6 34 -13 6z"/>
<path d="M3420 5719 c0 -5 5 -7 10 -4 6 3 10 8 10 11 0 2 -4 4 -10 4 -5 0 -10
-5 -10 -11z"/>
<path d="M3420 5655 c0 -8 2 -15 4 -15 2 0 6 7 10 15 3 8 1 15 -4 15 -6 0 -10
-7 -10 -15z"/>
<path d="M3472 5620 c0 -14 2 -19 5 -12 2 6 2 18 0 25 -3 6 -5 1 -5 -13z"/>
<path d="M3420 5598 c0 -17 3 -28 8 -24 10 10 10 56 0 56 -4 0 -8 -14 -8 -32z"/>
<path d="M3424 5455 c5 -98 31 -267 46 -295 5 -9 7 -20 4 -22 -5 -6 78 -261
106 -323 64 -144 71 -155 97 -155 21 0 20 34 -3 75 -13 22 -37 74 -54 115 -17
41 -35 84 -40 95 -9 21 -47 163 -56 205 -2 14 -9 48 -15 75 -6 28 -13 72 -16
99 -3 27 -9 61 -14 75 -12 35 -1 -91 16 -187 7 -40 9 -70 4 -65 -11 12 -40
138 -46 203 -3 30 -9 62 -14 71 -5 10 -4 20 3 27 9 9 9 12 -1 12 -7 0 -11 6
-8 14 3 8 2 27 -3 43 -7 20 -8 2 -6 -62z m109 -395 c3 -11 1 -18 -4 -14 -5 3
-9 12 -9 20 0 20 7 17 13 -6z"/>
<path d="M3461 5483 c-1 -23 3 -44 7 -47 4 -2 6 12 4 32 -5 56 -10 62 -11 15z"/>
<path d="M6935 5570 c4 -6 11 -8 16 -5 14 9 11 15 -7 15 -8 0 -12 -5 -9 -10z"/>
<path d="M6902 5450 c-24 -33 -39 -60 -35 -60 4 0 17 15 29 33 11 17 29 44 38
60 34 51 10 27 -32 -33z"/>
<path d="M6831 5354 c-13 -15 -17 -24 -10 -22 12 4 46 48 37 48 -2 0 -15 -12
-27 -26z"/>
<path d="M6675 5280 c-3 -5 -1 -10 4 -10 6 0 11 5 11 10 0 6 -2 10 -4 10 -3 0
-8 -4 -11 -10z"/>
<path d="M6646 5252 c-3 -5 1 -9 9 -9 8 0 15 4 15 9 0 4 -4 8 -9 8 -6 0 -12
-4 -15 -8z"/>
<path d="M6709 5153 c-13 -16 -12 -17 4 -4 9 7 17 15 17 17 0 8 -8 3 -21 -13z"/>
<path d="M6661 5114 c-7 -8 -11 -17 -9 -20 3 -2 13 5 23 16 10 11 14 20 9 20
-5 -1 -15 -8 -23 -16z"/>
<path d="M6549 5103 c-13 -16 -12 -17 4 -4 9 7 17 15 17 17 0 8 -8 3 -21 -13z"/>
<path d="M6490 5060 c-9 -6 -10 -10 -3 -10 6 0 15 5 18 10 8 12 4 12 -15 0z"/>
<path d="M4968 8163 c7 -3 16 -2 19 1 4 3 -2 6 -13 5 -11 0 -14 -3 -6 -6z"/>
<path d="M5023 8163 c9 -2 25 -2 35 0 9 3 1 5 -18 5 -19 0 -27 -2 -17 -5z"/>
<path d="M3698 7916 c-67 -34 -225 -146 -332 -234 -127 -106 -319 -304 -421
-436 -16 -21 -51 -66 -77 -98 -129 -162 -316 -488 -303 -528 14 -46 53 -8 106
104 11 25 25 46 30 46 5 0 9 9 9 19 0 11 4 22 9 26 6 3 25 32 43 65 18 33 36
60 40 60 5 0 8 7 8 15 0 8 5 15 11 15 5 0 8 4 5 8 -3 5 5 19 17 33 13 13 34
40 47 59 14 19 34 44 45 56 31 33 98 114 115 139 23 36 149 165 160 165 6 0
10 6 10 13 0 6 16 25 35 42 19 16 35 35 35 42 0 7 6 13 13 13 7 0 24 13 37 30
14 16 29 29 34 30 5 0 18 10 30 23 11 12 41 38 66 57 25 19 47 38 48 42 2 5 9
8 15 8 7 0 26 12 42 26 17 14 47 35 68 45 20 11 37 24 37 29 0 6 5 10 10 10 6
0 29 12 51 27 29 19 39 32 37 47 -4 29 -26 30 -80 2z"/>
<path d="M5318 7933 c7 -3 16 -2 19 1 4 3 -2 6 -13 5 -11 0 -14 -3 -6 -6z"/>
<path d="M5423 7915 c12 -13 39 -16 31 -3 -3 4 -1 8 5 8 5 0 12 -5 14 -10 3
-6 4 -5 3 2 -1 7 -16 13 -34 14 -23 1 -28 -1 -19 -11z"/>
<path d="M5530 7905 c0 -8 5 -15 11 -15 5 0 7 5 3 12 -5 8 -2 9 10 5 10 -4 15
-3 11 3 -10 15 -35 12 -35 -5z"/>
<path d="M5580 7910 c0 -4 11 -10 25 -12 14 -3 25 -2 25 2 0 4 -11 10 -25 12
-14 3 -25 2 -25 -2z"/>
<path d="M5750 7900 c8 -5 20 -10 25 -10 6 0 3 5 -5 10 -8 5 -19 10 -25 10 -5
0 -3 -5 5 -10z"/>
<path d="M5930 7900 c0 -5 5 -10 11 -10 5 0 7 5 4 10 -3 6 -8 10 -11 10 -2 0
-4 -4 -4 -10z"/>
<path d="M5570 7886 c0 -2 11 -6 25 -8 13 -3 22 -1 19 3 -5 9 -44 13 -44 5z"/>
<path d="M5694 7883 c12 -13 86 -31 86 -22 0 4 -17 13 -37 18 -45 13 -59 14
-49 4z"/>
<path d="M4984 7869 c-3 -5 7 -9 22 -9 15 0 24 3 20 7 -11 11 -35 12 -42 2z"/>
<path d="M5040 7871 c0 -4 14 -8 30 -9 17 0 30 3 30 7 0 4 -13 8 -30 9 -16 0
-30 -3 -30 -7z"/>
<path d="M5112 7874 c4 -3 46 -7 95 -8 48 -2 94 -5 102 -7 7 -2 15 1 17 6 3 7
-35 12 -108 13 -61 1 -109 0 -106 -4z"/>
<path d="M4896 7859 c4 -7 44 0 44 7 0 2 -11 3 -24 2 -14 -1 -23 -5 -20 -9z"/>
<path d="M5948 7863 c7 -3 16 -2 19 1 4 3 -2 6 -13 5 -11 0 -14 -3 -6 -6z"/>
<path d="M6130 7836 c0 -2 16 -13 35 -25 19 -11 35 -17 35 -13 0 5 -16 16 -35
25 -19 9 -35 15 -35 13z"/>
<path d="M6040 7827 c0 -3 15 -10 32 -16 18 -6 28 -7 23 -2 -12 10 -55 25 -55
18z"/>
<path d="M6220 7780 c0 -5 7 -10 16 -10 8 0 12 5 9 10 -3 6 -10 10 -16 10 -5
0 -9 -4 -9 -10z"/>
<path d="M6270 7749 c0 -5 9 -9 20 -9 11 0 20 2 20 4 0 2 -9 6 -20 9 -11 3
-20 1 -20 -4z"/>
<path d="M4265 7706 c-101 -38 -190 -80 -200 -95 -3 -6 36 9 88 33 51 24 121
54 155 66 34 12 62 24 62 26 0 7 -16 3 -105 -30z"/>
<path d="M6325 7720 c3 -5 8 -10 11 -10 2 0 4 5 4 10 0 6 -5 10 -11 10 -5 0
-7 -4 -4 -10z"/>
<path d="M6791 7682 c-22 -41 -8 -77 38 -102 22 -11 27 -10 43 10 22 28 23 49
0 77 -25 32 -68 40 -81 15z"/>
<path d="M4335 7624 c-49 -19 -94 -39 -99 -45 -14 -13 4 -11 34 4 14 7 55 24
93 37 37 13 67 27 67 32 0 10 9 13 -95 -28z"/>
<path d="M4184 7555 c-10 -8 -14 -14 -9 -14 6 0 19 6 29 14 11 8 15 15 10 15
-6 0 -19 -7 -30 -15z"/>
<path d="M4115 7518 c-16 -12 -32 -25 -35 -28 -3 -3 -29 -21 -58 -39 -30 -19
-59 -39 -65 -45 -7 -6 -29 -22 -49 -36 -21 -14 -38 -31 -38 -37 0 -7 -7 -13
-15 -13 -9 0 -18 -7 -21 -15 -4 -8 -10 -13 -14 -10 -5 3 -12 -1 -17 -8 -4 -7
-27 -26 -50 -43 -24 -16 -43 -35 -43 -41 0 -7 -5 -13 -11 -13 -14 0 -40 -26
-33 -33 3 -3 -4 -8 -15 -12 -12 -3 -19 -11 -16 -16 4 -5 0 -9 -7 -9 -16 0
-113 -118 -112 -135 1 -8 -4 -12 -10 -9 -6 2 -22 -12 -35 -31 -13 -19 -34 -47
-47 -62 -13 -16 -22 -34 -19 -41 3 -7 1 -10 -4 -7 -14 8 -104 -122 -97 -140 3
-8 2 -14 -2 -12 -4 1 -8 -2 -9 -7 -1 -5 -5 -12 -10 -15 -17 -13 -54 -92 -47
-103 4 -7 3 -8 -4 -4 -14 9 -66 -90 -56 -107 4 -7 4 -9 -1 -5 -11 10 -27 -23
-70 -144 -20 -57 -41 -112 -45 -123 -10 -22 -46 -172 -54 -220 -39 -239 -48
-565 -22 -775 17 -132 90 -399 143 -520 59 -136 113 -244 124 -248 5 -2 9 -8
9 -14 0 -6 17 -38 38 -72 20 -34 43 -73 51 -87 7 -15 23 -37 34 -50 12 -13 54
-67 93 -119 39 -53 79 -103 88 -113 10 -9 14 -21 11 -27 -4 -6 -2 -9 4 -8 6 2
70 -58 143 -132 143 -146 193 -190 333 -294 50 -37 97 -73 105 -79 98 -76 412
-251 560 -311 25 -10 64 -27 88 -38 78 -35 375 -129 467 -148 50 -11 106 -24
125 -29 40 -12 57 -15 195 -35 55 -9 134 -18 175 -21 86 -7 452 -6 490 1 14 2
45 8 70 12 l45 7 -45 12 c-25 7 -124 14 -220 17 -802 25 -1587 326 -2147 823
-230 204 -439 460 -586 716 -62 108 -147 302 -183 417 -29 97 -72 290 -63 290
5 0 11 -12 15 -27 32 -139 88 -295 159 -438 119 -243 189 -350 380 -580 243
-293 550 -542 895 -728 183 -98 481 -216 687 -272 295 -79 681 -130 696 -91 8
19 -24 46 -54 46 -42 0 -68 11 -62 26 3 8 10 11 17 7 7 -4 6 -1 -1 7 -10 11
-16 10 -30 -7 -15 -17 -25 -19 -63 -13 l-45 7 48 2 c27 0 47 6 47 12 0 6 -6 9
-14 6 -7 -3 -17 -2 -22 3 -5 4 -34 11 -64 14 -30 3 -64 7 -75 10 -11 2 -42 7
-70 10 -27 4 -63 9 -79 12 -32 5 -173 42 -196 51 -8 3 -22 7 -30 9 -34 6 -46
10 -57 17 -7 5 -13 6 -13 3 0 -3 -15 1 -32 8 -18 7 -39 11 -45 9 -7 -3 -13 0
-13 7 0 6 -4 9 -9 5 -5 -3 -35 6 -67 20 -31 14 -61 25 -66 25 -6 0 -24 6 -41
14 -18 8 -54 22 -82 31 -27 9 -54 20 -60 24 -5 5 -27 14 -48 21 -21 6 -79 33
-130 58 -112 56 -117 59 -92 38 19 -16 18 -16 -12 -1 -18 8 -33 20 -33 26 0 6
-4 8 -9 5 -5 -3 -26 7 -47 22 -22 15 -52 34 -69 42 -16 8 -59 37 -94 64 -36
26 -76 53 -88 59 -14 6 -22 16 -19 24 3 8 2 12 -3 8 -5 -3 -25 11 -45 30 -20
19 -41 35 -46 35 -6 0 -10 5 -10 10 0 6 -4 10 -9 10 -19 0 -292 258 -290 274
4 31 -6 48 -61 112 -79 90 -234 331 -298 464 -101 206 -194 511 -207 675 -4
48 -1 40 14 -40 44 -229 128 -476 218 -645 51 -95 174 -286 238 -370 78 -102
187 -211 329 -329 247 -205 352 -277 566 -389 250 -130 645 -269 900 -315 14
-3 43 -9 65 -15 54 -14 165 -30 250 -36 39 -3 90 -8 114 -12 31 -4 42 -3 36 5
-3 6 -12 11 -18 9 -7 -1 -39 1 -72 5 -33 4 -87 9 -120 12 -91 8 -82 6 -345 69
-215 52 -507 158 -678 246 -307 158 -551 346 -855 658 -117 120 -266 331 -351
499 -31 61 -85 180 -85 186 0 1 -10 24 -22 51 -11 27 -22 54 -24 60 -1 6 -4
18 -8 26 -3 8 -13 40 -23 70 -16 52 -19 66 -22 133 -1 19 -6 26 -14 21 -7 -5
-9 -2 -5 8 3 9 3 19 -1 22 -6 7 -7 13 -17 116 -13 130 -14 147 -13 255 0 140
2 178 9 190 3 6 4 21 3 35 -3 36 34 221 48 237 6 7 8 13 5 13 -4 0 0 18 8 39
7 22 11 42 8 45 -3 3 -1 11 4 18 6 7 25 56 42 108 38 112 51 143 85 193 14 20
24 43 22 49 -1 7 -1 9 2 5 2 -5 11 1 19 12 8 12 19 19 24 16 5 -3 6 1 3 9 -3
9 -2 16 4 16 6 0 15 14 21 30 5 17 15 30 20 30 6 0 11 5 11 11 0 6 12 26 26
45 15 19 22 34 16 34 -5 0 -13 7 -16 16 -4 12 -2 15 9 11 8 -4 17 -2 20 3 4 6
1 10 -4 10 -6 0 -11 5 -11 10 0 6 12 8 28 5 26 -6 26 -6 7 10 -13 10 -16 18
-9 23 6 4 16 16 23 27 11 18 12 18 8 -7 -2 -16 0 -28 4 -28 5 0 9 3 9 8 0 4
14 23 30 42 32 38 35 46 20 55 -6 4 -7 -1 -3 -11 4 -11 2 -15 -4 -11 -6 4 -13
-2 -16 -13 -3 -11 -10 -20 -16 -20 -17 0 -13 12 18 50 25 29 31 32 45 21 9 -8
16 -9 16 -3 0 6 -5 12 -12 14 -13 5 -2 28 13 28 6 0 8 -4 4 -9 -3 -5 0 -13 6
-17 9 -5 10 0 6 17 -5 19 3 32 47 74 91 87 138 125 226 183 47 31 87 59 90 62
3 3 20 12 38 19 17 8 32 20 32 27 0 9 -23 0 -65 -26 -36 -22 -68 -40 -71 -40
-3 0 -25 -14 -50 -30 -24 -17 -44 -28 -44 -25 0 3 -26 -16 -58 -42 -32 -26
-76 -61 -97 -78 -22 -16 -48 -40 -59 -52 -11 -13 -26 -23 -34 -23 -9 0 -13 -3
-9 -6 7 -7 -58 -74 -73 -74 -6 0 -9 -4 -6 -8 3 -5 -6 -20 -20 -35 -13 -14 -24
-31 -24 -37 0 -5 -4 -10 -8 -10 -4 0 -16 -15 -27 -32 -10 -18 -24 -38 -30 -44
-6 -7 -35 -53 -64 -103 -30 -50 -55 -91 -58 -91 -5 0 57 119 70 135 23 28 106
180 101 184 -4 4 -13 -4 -21 -16 -8 -12 -23 -31 -32 -42 -9 -11 -25 -30 -34
-43 -73 -99 -107 -149 -122 -177 -9 -18 -19 -31 -21 -28 -6 6 17 58 33 75 7 7
13 20 13 28 0 8 4 14 9 14 5 0 12 9 16 19 15 47 212 328 283 403 19 20 32 41
28 46 -3 5 0 9 7 8 18 -2 167 136 160 147 -3 6 -1 7 6 3 11 -7 78 38 114 78 9
10 17 15 17 10 0 -5 4 -4 8 2 4 6 29 27 55 47 51 39 53 52 2 15z m-547 -798
c-13 -20 -28 -27 -28 -12 0 10 22 32 32 32 5 0 3 -9 -4 -20z m-30 -37 c-15
-34 -52 -83 -61 -83 -8 0 -7 3 1 9 8 4 13 11 13 14 -1 12 34 67 42 67 5 0 7
-3 5 -7z m-191 -108 c-4 -8 -12 -15 -19 -14 -10 0 -10 2 0 6 6 2 12 12 12 21
0 8 3 13 6 9 4 -3 4 -13 1 -22z m66 10 c-3 -9 -8 -14 -10 -11 -3 3 -2 9 2 15
9 16 15 13 8 -4z m-27 -53 c-17 -16 -18 -16 -5 5 7 12 15 20 18 17 3 -2 -3
-12 -13 -22z m-68 -2 c-7 -10 -14 -18 -15 -16 -6 6 9 36 18 36 5 0 4 -9 -3
-20z m-161 -967 c-3 -10 -5 -2 -5 17 0 19 2 27 5 18 2 -10 2 -26 0 -35z m-70
-130 c-2 -16 -4 -5 -4 22 0 28 2 40 4 28 2 -13 2 -35 0 -50z m80 -15 c-3 -8
-6 -5 -6 6 -1 11 2 17 5 13 3 -3 4 -12 1 -19z m-70 -55 c-3 -10 -5 -4 -5 12 0
17 2 24 5 18 2 -7 2 -21 0 -30z m12 -45 c0 -34 11 -109 21 -140 5 -16 5 -30 0
-33 -13 -8 -36 123 -32 178 3 25 12 21 11 -5z m1511 -1904 c0 -2 -9 0 -20 6
-11 6 -20 13 -20 16 0 2 9 0 20 -6 11 -6 20 -13 20 -16z m415 -182 c-3 -3 -11
0 -18 7 -9 10 -8 11 6 5 10 -3 15 -9 12 -12z m542 -138 c-3 -3 -12 -4 -19 -1
-8 3 -5 6 6 6 11 1 17 -2 13 -5z m40 -10 c-3 -3 -12 -4 -19 -1 -8 3 -5 6 6 6
11 1 17 -2 13 -5z m78 -4 l20 -9 -20 0 c-11 0 -27 4 -35 9 -13 9 -13 10 0 9 8
0 24 -4 35 -9z"/>
<path d="M4385 7440 c-3 -5 -2 -10 4 -10 5 0 13 5 16 10 3 6 2 10 -4 10 -5 0
-13 -4 -16 -10z"/>
<path d="M4336 7425 c-11 -8 -15 -15 -10 -15 6 0 19 7 30 15 10 8 15 14 9 14
-5 0 -19 -6 -29 -14z"/>
<path d="M4650 7430 c-21 -7 -21 -8 -5 -9 11 0 27 4 35 9 18 11 5 11 -30 0z"/>
<path d="M4545 7401 c-27 -10 -71 -26 -97 -36 -27 -9 -50 -21 -54 -26 -9 -15
14 -10 53 11 21 11 45 20 53 20 8 1 40 12 70 25 64 28 48 32 -25 6z"/>
<path d="M4278 7403 c-10 -2 -18 -9 -18 -14 0 -13 12 -11 34 6 20 15 16 17
-16 8z"/>
<path d="M4400 7390 c-13 -8 -12 -10 3 -10 9 0 17 5 17 10 0 12 -1 12 -20 0z"/>
<path d="M5540 7390 c20 -13 43 -13 35 0 -3 6 -16 10 -28 10 -18 0 -19 -2 -7
-10z"/>
<path d="M4360 7370 c-9 -6 -10 -10 -3 -10 6 0 15 5 18 10 8 12 4 12 -15 0z"/>
<path d="M4595 7370 c-16 -7 -17 -9 -3 -9 9 -1 20 4 23 9 7 11 7 11 -20 0z"/>
<path d="M4300 7345 c-14 -8 -20 -14 -14 -15 5 0 19 7 30 15 24 18 16 19 -16
0z"/>
<path d="M4545 7352 c-11 -2 -24 -8 -30 -14 -9 -9 43 -1 54 8 8 7 -4 10 -24 6z"/>
<path d="M3929 7303 l-24 -28 28 24 c25 23 32 31 24 31 -2 0 -14 -12 -28 -27z"/>
<path d="M4250 7321 c0 -5 -12 -12 -26 -15 -15 -4 -24 -9 -22 -12 7 -7 68 17
68 27 0 5 -4 9 -10 9 -5 0 -10 -4 -10 -9z"/>
<path d="M4415 7301 c-36 -14 -97 -51 -85 -51 3 0 37 16 75 35 73 36 79 45 10
16z"/>
<path d="M4175 7280 c-3 -5 -1 -10 4 -10 6 0 11 5 11 10 0 6 -2 10 -4 10 -3 0
-8 -4 -11 -10z"/>
<path d="M3852 7247 c-44 -45 -40 -55 5 -12 20 19 34 37 32 40 -3 2 -20 -10
-37 -28z"/>
<path d="M2804 7213 c-53 -57 -148 -195 -169 -245 -12 -30 -12 -38 -1 -47 17
-15 36 7 138 167 105 163 119 219 32 125z"/>
<path d="M4070 7219 c-20 -16 -21 -18 -4 -10 12 6 25 7 29 3 5 -4 5 -2 2 5 -4
6 -1 14 5 16 7 3 9 6 3 6 -5 0 -21 -9 -35 -20z"/>
<path d="M4245 7205 c-16 -14 -36 -25 -43 -25 -7 0 -10 -5 -7 -10 4 -6 17 -3
35 10 15 11 33 20 40 20 6 0 9 4 6 9 -4 5 0 12 6 14 7 3 9 6 3 6 -5 0 -23 -11
-40 -24z"/>
<path d="M3740 7139 c-30 -33 -65 -71 -77 -83 -13 -13 -23 -28 -23 -35 0 -6
-4 -11 -10 -11 -5 0 -10 -7 -10 -15 0 -8 -4 -15 -10 -15 -5 0 -14 -8 -19 -18
-8 -14 -6 -19 5 -19 14 0 60 74 56 90 -1 4 3 7 9 7 12 0 39 25 39 36 0 4 17
24 38 44 53 51 77 80 66 80 -5 0 -34 -28 -64 -61z"/>
<path d="M4000 7190 c0 -5 5 -10 11 -10 5 0 7 5 4 10 -3 6 -8 10 -11 10 -2 0
-4 -4 -4 -10z"/>
<path d="M4122 7123 c-29 -20 -51 -38 -48 -40 3 -4 88 49 111 69 24 21 -15 3
-63 -29z"/>
<path d="M4014 7037 c-21 -19 -48 -39 -59 -45 -11 -6 -15 -12 -9 -12 11 0 114
77 114 86 0 8 -7 4 -46 -29z"/>
<path d="M4059 7003 c-13 -16 -12 -17 4 -4 9 7 17 15 17 17 0 8 -8 3 -21 -13z"/>
<path d="M3830 6989 c0 -5 5 -7 10 -4 6 3 10 8 10 11 0 2 -4 4 -10 4 -5 0 -10
-5 -10 -11z"/>
<path d="M3915 6957 c-5 -7 -19 -24 -30 -37 -11 -14 -3 -10 18 9 20 19 37 36
37 38 0 8 -16 1 -25 -10z"/>
<path d="M3009 6883 c-13 -16 -12 -17 4 -4 16 13 21 21 13 21 -2 0 -10 -8 -17
-17z"/>
<path d="M3794 6784 c-18 -14 -18 -15 4 -4 12 6 22 13 22 15 0 8 -5 6 -26 -11z"/>
<path d="M2915 6740 c-9 -16 -13 -30 -11 -30 3 0 12 14 21 30 9 17 13 30 11
30 -3 0 -12 -13 -21 -30z"/>
<path d="M3726 6708 l-17 -33 20 24 c18 20 27 41 18 41 -1 0 -11 -15 -21 -32z"/>
<path d="M2885 6689 c-4 -6 -5 -12 -2 -15 2 -3 7 2 10 11 7 17 1 20 -8 4z"/>
<path d="M2966 6635 c-9 -26 -7 -32 5 -12 6 10 9 21 6 23 -2 3 -7 -2 -11 -11z"/>
<path d="M2946 6585 c-3 -8 -1 -15 4 -15 6 0 10 7 10 15 0 8 -2 15 -4 15 -2 0
-6 -7 -10 -15z"/>
<path d="M2902 6488 c-53 -127 -81 -206 -75 -212 4 -3 0 -6 -7 -6 -7 0 -11 -3
-8 -6 4 -3 -4 -37 -17 -75 -13 -38 -26 -85 -29 -105 -4 -20 -8 -40 -11 -44 -2
-3 -7 -22 -10 -41 -3 -19 -8 -42 -11 -51 -3 -9 -7 -26 -9 -37 -3 -12 -7 -31
-10 -43 -7 -29 -25 -293 -26 -376 -1 -34 -4 -64 -8 -67 -4 -2 -6 40 -4 93 8
239 8 274 2 278 -8 4 -19 -100 -19 -179 0 -33 -3 -57 -7 -53 -4 3 -6 31 -5 61
0 30 -3 57 -8 60 -6 4 -10 -8 -10 -26 0 -18 -3 -29 -7 -25 -4 4 -6 26 -4 49 1
23 0 39 -4 36 -8 -8 -19 -97 -20 -156 0 -24 -4 -43 -9 -43 -5 0 -5 48 -1 108
13 186 14 212 6 212 -4 0 -8 -12 -9 -27 -1 -16 -4 -46 -8 -68 -4 -22 -7 -57
-8 -77 -1 -52 -16 -48 -17 5 l-1 42 -9 -35 c-5 -19 -6 -46 -3 -58 2 -13 1 -21
-3 -19 -10 6 -7 -178 3 -194 5 -9 2 -10 -9 -6 -9 3 -19 2 -22 -3 -4 -6 0 -10
7 -10 10 0 14 -15 13 -54 0 -30 -3 -57 -6 -61 -8 -8 -2 -139 13 -265 6 -52 12
-111 14 -130 4 -54 31 -164 70 -285 147 -452 356 -795 708 -1162 82 -86 96
-119 27 -64 -119 94 -346 368 -465 560 -90 145 -211 394 -246 506 -7 22 -16
45 -20 50 -6 8 -44 121 -65 195 -1 3 -5 23 -10 45 -4 22 -10 49 -12 60 -3 11
-7 31 -8 45 -2 14 -4 25 -5 25 -3 0 -11 55 -12 87 0 15 -5 25 -9 22 -5 -3 -9
14 -10 38 0 24 -2 54 -4 68 -2 14 -6 67 -9 119 -3 51 -8 102 -12 113 -3 11 -2
18 2 15 5 -3 9 50 9 116 0 110 12 283 20 297 2 3 6 30 10 60 8 66 13 95 15 95
1 0 3 7 5 15 26 125 77 305 103 363 12 26 17 47 13 47 -12 0 -62 -128 -75
-193 -2 -7 -6 -19 -9 -27 -10 -24 -36 -122 -41 -155 -3 -16 -10 -55 -16 -85
-6 -30 -13 -64 -14 -75 -2 -11 -6 -39 -10 -63 -4 -23 -9 -52 -11 -65 -1 -12
-5 -47 -9 -77 -4 -30 -9 -71 -12 -90 -3 -19 -8 -122 -11 -228 -3 -109 -9 -188
-14 -181 -6 10 -8 7 -6 -9 1 -14 6 -21 14 -18 18 7 17 -61 -1 -79 -7 -8 -16
-12 -18 -10 -2 3 -1 -26 3 -63 33 -282 76 -451 176 -692 75 -181 101 -232 198
-387 232 -368 512 -673 815 -884 127 -89 117 -77 -65 83 -114 100 -153 138
-143 138 3 0 18 -12 34 -26 60 -53 282 -221 353 -268 240 -157 438 -264 641
-344 113 -45 312 -114 325 -113 2 0 24 -6 47 -15 23 -8 54 -17 70 -19 16 -3
54 -12 86 -20 125 -33 384 -72 562 -84 92 -7 107 -6 124 9 15 14 16 22 7 39
-16 29 -35 37 -128 50 -84 12 -108 16 -156 27 -16 3 -38 7 -50 9 -30 4 -85 14
-127 24 -59 14 -344 102 -363 113 -31 16 -11 21 30 7 21 -7 44 -14 51 -15 8
-1 21 -6 30 -10 9 -4 24 -8 32 -10 8 -2 44 -10 80 -19 36 -8 76 -17 90 -19 14
-2 75 -13 135 -24 290 -52 370 -60 630 -59 221 0 428 12 463 27 25 11 29 32 9
49 -13 10 -47 8 -222 -13 -52 -6 -527 -8 -546 -2 -8 3 -36 7 -64 10 -97 11
-210 26 -225 31 -8 2 -31 7 -50 10 -40 7 -185 40 -245 56 -22 6 -51 17 -65 25
l-25 14 25 -5 c14 -2 43 -9 65 -14 36 -9 38 -8 21 5 -18 13 -18 14 -2 14 9 0
26 -5 38 -11 21 -11 34 -14 108 -23 29 -4 40 -2 29 4 -8 5 -26 10 -40 12 -13
2 -28 6 -34 10 -5 3 -29 9 -52 13 -39 6 -61 20 -51 31 3 2 25 -3 49 -12 24 -8
51 -17 60 -19 57 -12 98 -29 92 -39 -4 -6 0 -6 9 1 8 7 17 10 21 7 10 -10 87
-15 87 -6 0 6 -30 17 -67 27 -132 33 -358 112 -522 181 -121 52 -371 171 -371
178 0 3 26 -6 58 -20 245 -112 492 -202 682 -247 156 -38 448 -78 595 -83 156
-4 149 -1 -60 26 -207 26 -219 28 -290 46 -33 9 -69 17 -80 19 -36 5 -169 36
-195 45 -14 5 -72 23 -130 41 -133 40 -243 83 -445 171 -329 144 -539 275
-805 501 -145 123 -321 309 -433 457 -31 41 -62 82 -70 91 -26 30 -97 138 -97
148 0 5 -4 11 -9 13 -20 7 -221 405 -221 437 0 7 -9 30 -20 53 -34 72 -118
433 -116 500 1 20 -2 34 -6 32 -4 -3 -8 7 -9 23 0 15 -3 37 -5 48 -2 11 -5 97
-7 190 -3 243 11 388 63 625 20 94 123 422 140 445 12 16 19 55 10 55 -4 0
-22 -33 -38 -72z m-273 -924 c-1 -36 -5 -52 -12 -45 -9 9 -1 101 9 101 2 0 3
-25 3 -56z m-77 4 c-6 -6 -8 -1 -7 14 3 32 7 36 12 14 3 -10 1 -22 -5 -28z
m-5 -70 c-3 -8 -6 -5 -6 6 -1 11 2 17 5 13 3 -3 4 -12 1 -19z m43 -9 c0 -6 -4
-7 -10 -4 -5 3 -10 11 -10 16 0 6 5 7 10 4 6 -3 10 -11 10 -16z m-5 -28 c3 -5
1 -12 -5 -16 -5 -3 -10 1 -10 9 0 18 6 21 15 7z m-1 -46 c-4 -8 -8 -15 -10
-15 -2 0 -4 7 -4 15 0 8 4 15 10 15 5 0 7 -7 4 -15z m6 -51 c0 -8 -4 -12 -10
-9 -5 3 -10 10 -10 16 0 5 5 9 10 9 6 0 10 -7 10 -16z m95 6 c3 -5 1 -10 -4
-10 -6 0 -11 5 -11 10 0 6 2 10 4 10 3 0 8 -4 11 -10z m5 -30 c0 -5 -2 -10 -4
-10 -3 0 -8 5 -11 10 -3 6 -1 10 4 10 6 0 11 -4 11 -10z m0 -62 c0 -16 -3 -19
-11 -11 -6 6 -8 16 -5 22 11 17 16 13 16 -11z m-153 -30 c-3 -8 -6 -5 -6 6 -1
11 2 17 5 13 3 -3 4 -12 1 -19z m163 -107 c0 -11 -3 -22 -7 -24 -5 -3 -8 6 -8
19 0 13 3 24 8 24 4 0 7 -9 7 -19z m10 -45 c0 -3 -4 -8 -10 -11 -5 -3 -10 -1
-10 4 0 6 5 11 10 11 6 0 10 -2 10 -4z m-9 -49 c-10 -9 -11 -8 -5 6 3 10 9 15
12 12 3 -3 0 -11 -7 -18z m17 -48 c-3 -8 -7 -3 -11 10 -4 17 -3 21 5 13 5 -5
8 -16 6 -23z m-283 -59 c3 -5 1 -10 -4 -10 -6 0 -11 5 -11 10 0 6 2 10 4 10 3
0 8 -4 11 -10z m5 -63 c0 -10 -4 -16 -9 -13 -5 3 -8 17 -8 32 0 18 2 22 8 13
5 -8 9 -22 9 -32z m308 -23 c-3 -14 -5 -12 -10 9 -3 19 -2 25 4 19 6 -6 8 -18
6 -28z m-298 -8 c0 -3 -4 -8 -10 -11 -5 -3 -10 -1 -10 4 0 6 5 11 10 11 6 0
10 -2 10 -4z m0 -36 c0 -5 -2 -10 -4 -10 -3 0 -8 5 -11 10 -3 6 -1 10 4 10 6
0 11 -4 11 -10z m307 -32 c-3 -8 -6 -5 -6 6 -1 11 2 17 5 13 3 -3 4 -12 1 -19z
m21 -63 c-3 -3 -9 2 -12 12 -6 14 -5 15 5 6 7 -7 10 -15 7 -18z m31 -78 c0
-21 -1 -21 -9 -2 -12 28 -12 37 0 30 6 -3 10 -16 9 -28z m1105 -1486 c-2 -3
-12 3 -22 13 -16 17 -16 18 5 5 12 -7 20 -15 17 -18z m426 -176 c25 -13 41
-24 35 -24 -5 0 -30 11 -55 24 -25 13 -40 24 -35 24 6 0 30 -11 55 -24z m-155
-3 c-3 -3 -11 0 -18 7 -9 10 -8 11 6 5 10 -3 15 -9 12 -12z m205 -112 c0 -5
-2 -10 -4 -10 -3 0 -8 5 -11 10 -3 6 -1 10 4 10 6 0 11 -4 11 -10z m175 -70
c3 -5 1 -10 -4 -10 -6 0 -11 5 -11 10 0 6 2 10 4 10 3 0 8 -4 11 -10z m450
-172 c7 -7 1 -8 -15 -3 -40 12 -59 26 -25 19 17 -4 35 -11 40 -16z m-160 2 c3
-5 2 -10 -4 -10 -5 0 -13 5 -16 10 -3 6 -2 10 4 10 5 0 13 -4 16 -10z m105
-10 c0 -5 -2 -10 -4 -10 -3 0 -8 5 -11 10 -3 6 -1 10 4 10 6 0 11 -4 11 -10z
m-305 -10 c3 -6 -1 -7 -9 -4 -18 7 -21 14 -7 14 6 0 13 -4 16 -10z m190 -8
c-3 -3 -11 0 -18 7 -9 10 -8 11 6 5 10 -3 15 -9 12 -12z m162 2 c-3 -3 -12 -4
-19 -1 -8 3 -5 6 6 6 11 1 17 -2 13 -5z m-112 -144 c13 -6 15 -9 5 -9 -8 0
-22 4 -30 9 -18 12 -2 12 25 0z m65 -20 c0 -5 -7 -7 -15 -4 -8 4 -15 8 -15 10
0 2 7 4 15 4 8 0 15 -4 15 -10z m45 -10 c18 -8 17 -9 -7 -9 -16 -1 -28 4 -28
9 0 12 8 12 35 0z m125 -30 l25 -8 -25 0 c-14 0 -36 4 -50 8 l-25 8 25 0 c14
0 36 -4 50 -8z m125 -25 l60 -14 -60 5 c-55 6 -114 24 -75 23 8 0 42 -6 75
-14z m85 -15 c0 -5 -5 -10 -11 -10 -5 0 -7 5 -4 10 3 6 8 10 11 10 2 0 4 -4 4
-10z"/>
<path d="M3466 6519 c-10 -17 -16 -33 -13 -35 3 -3 12 9 21 27 21 42 15 47 -8
8z"/>
<path d="M2760 6530 c0 -5 5 -10 10 -10 6 0 10 5 10 10 0 6 -4 10 -10 10 -5 0
-10 -4 -10 -10z"/>
<path d="M3426 6453 c-6 -14 -5 -15 5 -6 7 7 10 15 7 18 -3 3 -9 -2 -12 -12z"/>
<path d="M3046 6445 c-9 -26 -7 -32 5 -12 6 10 9 21 6 23 -2 3 -7 -2 -11 -11z"/>
<path d="M3405 6419 c-4 -6 -5 -12 -2 -15 2 -3 7 2 10 11 7 17 1 20 -8 4z"/>
<path d="M3015 6350 c-3 -5 -1 -10 4 -10 6 0 11 5 11 10 0 6 -2 10 -4 10 -3 0
-8 -4 -11 -10z"/>
<path d="M2940 6329 c0 -5 5 -7 10 -4 6 3 10 8 10 11 0 2 -4 4 -10 4 -5 0 -10
-5 -10 -11z"/>
<path d="M2999 6304 c-6 -16 -12 -37 -14 -46 -2 -9 -8 -26 -14 -37 -6 -11 -11
-31 -11 -45 0 -14 -4 -27 -9 -30 -4 -3 -12 -25 -16 -48 -4 -24 -10 -50 -12
-58 -2 -8 -6 -37 -10 -65 -3 -27 -9 -52 -13 -55 -4 -3 -7 -12 -7 -20 0 -8 -3
-37 -7 -65 -18 -124 -26 -403 -13 -495 2 -14 -2 -31 -7 -39 -8 -11 -8 -13 0
-8 8 4 12 -10 12 -48 0 -44 -2 -53 -15 -48 -12 5 -12 7 -1 15 10 8 10 9 -2 5
-18 -4 -20 -43 -2 -40 16 4 15 -7 -3 -31 -15 -19 -15 -19 -15 2 0 12 -4 22 -8
22 -4 0 -9 12 -10 28 -24 249 -20 547 9 669 7 26 13 59 14 73 1 14 7 45 14 70
7 25 15 53 16 63 5 24 32 128 40 152 5 17 5 17 -4 4 -15 -23 -73 -214 -87
-283 -2 -10 -8 -33 -13 -50 -42 -135 -46 -685 -6 -891 29 -148 102 -394 147
-495 170 -377 343 -620 677 -949 59 -57 142 -132 186 -168 99 -79 333 -236
440 -294 144 -79 477 -224 619 -271 128 -42 436 -118 541 -134 49 -8 109 -15
130 -16 11 0 34 -4 50 -9 49 -14 115 -20 115 -10 0 5 -6 11 -12 14 -7 3 0 10
16 16 16 7 35 10 43 7 7 -3 13 -1 13 4 0 6 -12 10 -27 11 -16 0 -37 3 -48 5
-11 3 -34 6 -52 6 -17 1 -29 6 -27 10 3 4 0 8 -5 8 -6 0 -11 -7 -11 -16 0 -8
-5 -12 -10 -9 -6 4 -8 10 -5 15 3 4 -2 10 -10 14 -10 3 -15 -1 -15 -11 0 -16
-1 -16 -12 0 -14 18 -94 39 -127 32 -11 -2 -21 1 -21 6 0 6 -4 7 -10 4 -6 -4
-7 1 -3 11 5 13 3 15 -7 9 -8 -5 -11 -3 -8 6 3 8 12 13 19 11 9 -2 7 4 -5 17
-19 21 -19 21 2 21 12 0 22 -5 22 -12 0 -6 3 -8 7 -5 3 4 13 1 21 -6 13 -9 14
-9 8 1 -4 7 -1 12 9 12 9 0 14 -4 11 -9 -4 -5 6 -12 21 -14 44 -8 73 -7 73 3
0 14 -32 21 -46 9 -12 -10 -13 -9 -8 5 5 12 0 16 -17 17 -13 0 -31 2 -39 4 -8
1 -28 5 -45 8 -16 3 -38 8 -47 12 -12 5 -18 2 -18 -6 0 -11 -3 -11 -10 1 -5 8
-10 10 -10 5 0 -6 5 -16 11 -22 9 -9 7 -16 -6 -29 -16 -16 -17 -16 -15 2 1 10
1 22 0 27 -1 4 -3 13 -4 20 0 6 -5 12 -11 13 -5 0 -17 3 -25 6 -44 16 -102 28
-110 23 -6 -3 -10 -1 -10 5 0 12 -38 4 -55 -12 -6 -6 -4 -7 8 -3 25 10 21 -2
-5 -16 -13 -6 -20 -8 -15 -4 7 9 -43 36 -73 40 -39 5 -60 18 -60 39 1 19 3 19
25 -9 19 -23 27 -27 37 -17 16 16 29 15 25 0 -1 -7 4 -12 11 -11 6 2 12 -2 12
-7 0 -6 7 -10 15 -10 8 0 15 3 15 8 -1 14 -27 42 -33 35 -4 -3 -7 -1 -7 6 0 7
-4 9 -10 6 -5 -3 -21 1 -34 10 -14 9 -30 14 -35 11 -5 -4 -13 -2 -16 4 -4 6
-16 8 -27 4 -12 -3 -18 -2 -15 3 6 9 1 11 -42 15 -11 1 -18 5 -15 9 2 4 -3 9
-11 13 -9 3 -15 0 -15 -9 0 -8 -6 -15 -12 -15 -9 0 -8 -4 2 -10 13 -8 12 -10
-2 -10 -21 0 -22 4 -8 30 8 16 8 18 -5 14 -10 -4 -15 0 -15 11 0 9 -5 13 -10
10 -6 -4 -17 -1 -25 5 -8 6 -20 8 -26 4 -7 -4 -9 -3 -6 2 3 6 -39 30 -93 54
-54 24 -96 48 -94 52 3 4 -1 5 -9 2 -8 -3 -17 1 -20 10 -3 9 -16 13 -31 12
-17 -2 -26 2 -26 10 0 8 -6 14 -14 14 -7 0 -19 7 -26 15 -15 18 -44 20 -34 3
4 -8 3 -10 -2 -5 -5 5 -10 13 -10 18 -3 22 -5 23 -14 9 -8 -13 -10 -13 -10 2
0 12 -5 15 -15 11 -10 -3 -15 0 -13 8 2 10 -6 13 -27 12 -20 -2 -25 1 -16 6
10 7 10 10 1 16 -7 4 -16 1 -21 -6 -8 -12 -13 -6 -11 12 1 4 -8 15 -19 25 -17
16 -22 16 -31 4 -8 -13 -9 -12 -5 1 3 9 0 22 -6 28 -17 17 -27 13 -21 -6 5
-16 4 -16 -10 1 -8 10 -19 15 -24 12 -6 -3 -8 2 -5 12 3 13 -8 27 -39 48 -24
16 -46 33 -50 39 -5 7 -8 6 -8 -1 0 -5 6 -16 13 -23 10 -11 8 -11 -10 0 -11 7
-19 18 -16 24 2 7 -3 15 -12 19 -9 3 -13 2 -10 -4 3 -6 -1 -7 -9 -4 -9 3 -13
10 -11 15 5 8 -31 52 -39 47 -7 -6 -54 36 -50 44 3 5 1 7 -4 6 -5 -2 -41 27
-80 64 -54 49 -71 71 -66 85 5 15 4 15 -5 3 -9 -12 -23 -2 -83 60 -40 41 -91
98 -113 125 -22 28 -42 52 -45 55 -3 3 -17 21 -30 40 -27 38 -48 65 -68 86 -7
8 -11 14 -7 14 3 0 -4 11 -17 25 -13 13 -28 30 -33 37 -23 30 -142 226 -157
258 -9 19 -39 85 -68 145 -28 61 -64 148 -79 195 -51 154 -71 224 -76 260 -2
19 -9 58 -14 85 -44 226 -49 542 -11 740 23 123 50 261 54 275 2 8 14 48 25
89 21 75 21 109 0 55z m-99 -1165 c0 -6 -4 -7 -10 -4 -5 3 -10 11 -10 16 0 6
5 7 10 4 6 -3 10 -11 10 -16z m0 -30 c0 -5 -3 -9 -7 -10 -5 0 -18 -2 -30 -3
-23 -3 -29 4 -16 17 3 4 13 1 21 -6 13 -10 15 -9 9 5 -4 12 -2 15 9 11 7 -3
14 -9 14 -14z m12 -36 c2 -25 6 -47 8 -53 1 -3 4 -21 6 -40 4 -28 2 -32 -7
-17 -6 10 -12 36 -13 57 -1 22 -5 43 -9 47 -10 10 -8 23 3 23 6 0 11 -8 12
-17z m-38 -8 c-4 -8 -11 -15 -16 -15 -6 0 -5 6 2 15 7 8 14 15 16 15 2 0 1 -7
-2 -15z m10 -29 c-3 -9 -10 -16 -15 -16 -5 0 -4 9 3 20 14 22 21 20 12 -4z m6
-47 c0 -6 -4 -7 -10 -4 -5 3 -10 11 -10 16 0 6 5 7 10 4 6 -3 10 -11 10 -16z
m16 -46 c4 -16 11 -34 17 -41 7 -9 7 -16 -1 -24 -8 -8 -13 0 -17 26 -4 20 -11
39 -16 42 -12 7 -11 24 1 24 5 0 13 -12 16 -27z m68 -116 c5 -10 6 -21 2 -24
-3 -4 -6 1 -6 10 0 10 -4 17 -10 17 -13 0 -13 -3 2 -35 7 -16 14 -21 18 -14 4
6 10 7 13 2 3 -5 -2 -14 -12 -20 -14 -9 -20 -4 -37 33 -11 23 -15 42 -10 41
13 -2 9 63 -5 79 -5 6 -5 14 -1 18 4 4 14 -14 23 -41 8 -26 19 -56 23 -66z
m16 -122 c0 -5 -5 -3 -10 5 -5 8 -10 20 -10 25 0 6 5 3 10 -5 5 -8 10 -19 10
-25z m40 -20 c0 -5 -5 -3 -10 5 -5 8 -10 20 -10 25 0 6 5 3 10 -5 5 -8 10 -19
10 -25z m-20 -38 c-10 -9 -11 -9 -6 0 3 6 2 14 -4 18 -5 3 -10 11 -10 16 0 6
7 3 16 -6 14 -13 14 -19 4 -28z m50 -19 c0 -12 -3 -18 -7 -14 -11 10 -12 36
-2 36 5 0 9 -10 9 -22z m36 -73 c6 -19 9 -35 5 -35 -7 0 -31 59 -31 75 0 16
14 -6 26 -40z m39 -76 c11 -17 -1 -21 -15 -4 -8 9 -8 15 -2 15 6 0 14 -5 17
-11z m105 -189 c6 -11 8 -20 6 -20 -3 0 -10 9 -16 20 -6 11 -8 20 -6 20 3 0
10 -9 16 -20z m33 -50 c9 -11 13 -20 7 -20 -5 0 -14 9 -20 20 -6 11 -9 20 -8
20 2 0 11 -9 21 -20z m41 -70 c-6 -5 -24 21 -24 34 0 6 6 1 14 -10 8 -10 12
-21 10 -24z m45 -60 c12 -23 11 -22 -13 4 -14 16 -26 33 -26 38 0 13 25 -13
39 -42z m55 -66 c9 -24 2 -26 -12 -4 -7 11 -8 20 -3 20 5 0 12 -7 15 -16z m71
-84 c10 -11 16 -20 13 -20 -3 0 -13 9 -23 20 -10 11 -16 20 -13 20 3 0 13 -9
23 -20z m40 -50 c10 -11 16 -20 13 -20 -3 0 -13 9 -23 20 -10 11 -16 20 -13
20 3 0 13 -9 23 -20z m430 -440 c3 -6 -1 -7 -9 -4 -18 7 -21 14 -7 14 6 0 13
-4 16 -10z m125 -40 c9 -16 8 -18 -5 -14 -8 3 -13 10 -10 14 3 5 -1 11 -7 13
-10 4 -10 6 -1 6 7 1 17 -8 23 -19z m140 -100 c0 -5 -2 -10 -4 -10 -3 0 -8 5
-11 10 -3 6 -1 10 4 10 6 0 11 -4 11 -10z m190 -110 c0 -5 -2 -10 -4 -10 -3 0
-8 5 -11 10 -3 6 -1 10 4 10 6 0 11 -4 11 -10z m35 -48 c-3 -3 -11 0 -18 7 -9
10 -8 11 6 5 10 -3 15 -9 12 -12z m41 -14 c-10 -6 -20 -7 -24 -3 -9 8 20 25
31 18 5 -3 2 -10 -7 -15z m29 -26 c-3 -3 -11 0 -18 7 -9 10 -8 11 6 5 10 -3
15 -9 12 -12z m60 -11 c-8 -14 -25 -14 -25 0 0 5 5 7 10 4 6 -3 10 -1 10 6 0
7 3 10 6 6 3 -3 3 -10 -1 -16z m191 -90 c-4 -5 -1 -12 4 -14 6 -3 5 -4 -2 -3
-15 3 -23 26 -8 26 6 0 9 -4 6 -9z m170 -45 c19 5 19 5 0 -6 -15 -10 -16 -14
-5 -21 11 -7 11 -9 1 -9 -7 0 -15 7 -18 15 -5 11 -10 13 -19 5 -16 -13 -28 0
-14 17 8 9 15 10 24 3 7 -6 21 -8 31 -4z m64 -28 c0 -5 5 -6 10 -3 6 3 10 4
10 1 0 -15 -20 -13 -36 5 -16 18 -16 19 -1 13 9 -3 17 -10 17 -16z m176 -56
c-8 -13 66 -34 78 -22 10 10 46 -15 46 -32 0 -16 -20 -8 -21 10 0 9 -3 12 -5
5 -4 -8 -13 -9 -35 -1 -16 5 -36 7 -45 4 -8 -3 -12 -2 -9 4 3 6 -2 10 -12 10
-10 0 -25 5 -33 11 -13 9 -12 10 3 5 9 -3 17 -1 17 4 0 6 5 10 11 10 5 0 8 -4
5 -8z m-5 -48 c8 -10 3 -10 -20 2 -17 9 -31 17 -31 19 0 8 40 -9 51 -21z m191
-9 c3 -14 2 -27 -1 -30 -4 -2 -8 10 -9 26 -3 36 4 38 10 4z m-108 -11 c3 -8 2
-12 -4 -9 -6 3 -10 10 -10 16 0 14 7 11 14 -7z"/>
<path d="M2920 6268 c0 -19 2 -20 10 -8 13 19 13 30 0 30 -5 0 -10 -10 -10
-22z"/>
<path d="M7433 6228 c-6 -7 -13 -53 -16 -103 -10 -160 -73 -395 -151 -569 -14
-33 -24 -61 -22 -63 6 -6 130 250 150 309 43 130 69 256 70 342 1 88 -8 113
-31 84z"/>
<path d="M2430 6204 c-13 -32 -13 -44 0 -44 6 0 10 13 10 29 0 16 6 32 13 34
9 4 9 6 -1 6 -7 1 -17 -11 -22 -25z"/>
<path d="M2413 6135 c0 -8 4 -15 9 -15 4 0 8 7 8 15 0 8 -4 15 -8 15 -5 0 -9
-7 -9 -15z"/>
<path d="M2390 6063 c-16 -54 -17 -57 -25 -98 -3 -16 -12 -52 -20 -80 -8 -27
-17 -70 -20 -95 -3 -25 -8 -52 -10 -60 -10 -35 -33 -282 -34 -361 -2 -89 10
-118 43 -106 11 5 15 31 15 122 2 211 9 318 36 500 5 36 16 103 20 115 1 3 5
21 9 40 4 19 10 43 12 53 3 9 2 17 -3 17 -5 0 -15 -21 -23 -47z"/>
<path d="M2705 6039 c-4 -6 -5 -12 -2 -15 2 -3 7 2 10 11 7 17 1 20 -8 4z"/>
<path d="M2661 6024 c0 -11 3 -14 6 -6 3 7 2 16 -1 19 -3 4 -6 -2 -5 -13z"/>
<path d="M2686 5943 c-6 -14 -5 -15 5 -6 7 7 10 15 7 18 -3 3 -9 -2 -12 -12z"/>
<path d="M2595 5920 c3 -5 8 -10 11 -10 2 0 4 5 4 10 0 6 -5 10 -11 10 -5 0
-7 -4 -4 -10z"/>
<path d="M2633 5893 c-1 -98 -4 -118 -13 -103 -6 9 -10 10 -10 3 0 -6 5 -15
10 -18 6 -3 10 -22 10 -41 0 -19 3 -34 8 -34 4 0 7 50 7 110 0 61 -2 110 -6
110 -3 0 -6 -12 -6 -27z"/>
<path d="M2679 5908 c-7 -17 -7 -98 0 -98 5 0 8 23 8 50 -1 43 -4 58 -8 48z"/>
<path d="M2592 5875 c0 -16 2 -22 5 -12 2 9 2 23 0 30 -3 6 -5 -1 -5 -18z"/>
<path d="M2549 5778 c-6 -22 -6 -58 0 -58 4 0 7 14 7 30 0 24 -3 39 -7 28z"/>
<path d="M2825 5580 c-3 -5 -1 -10 4 -10 6 0 11 5 11 10 0 6 -2 10 -4 10 -3 0
-8 -4 -11 -10z"/>
<path d="M2511 5554 c0 -11 3 -14 6 -6 3 7 2 16 -1 19 -3 4 -6 -2 -5 -13z"/>
<path d="M2825 5491 c-3 -5 -1 -12 5 -16 5 -3 10 1 10 9 0 18 -6 21 -15 7z"/>
<path d="M2501 5474 c0 -11 3 -14 6 -6 3 7 2 16 -1 19 -3 4 -6 -2 -5 -13z"/>
<path d="M2829 5373 c0 -10 0 -40 2 -68 1 -27 2 -57 3 -66 0 -9 6 -15 13 -12
16 6 17 20 1 27 -9 4 -10 8 -2 11 8 4 9 20 3 51 -5 26 -7 50 -4 54 3 5 1 11
-5 15 -5 3 -10 -2 -11 -12z"/>
<path d="M2501 5334 c0 -11 3 -14 6 -6 3 7 2 16 -1 19 -3 4 -6 -2 -5 -13z"/>
<path d="M8046 3935 c-11 -8 -15 -15 -9 -15 6 0 16 7 23 15 16 19 11 19 -14 0z"/>
<path d="M7855 3890 c-3 -6 1 -7 9 -4 18 7 21 14 7 14 -6 0 -13 -4 -16 -10z"/>
<path d="M7946 3745 c-3 -8 -15 -15 -26 -15 -12 0 -18 -5 -15 -10 7 -11 65 18
65 32 0 14 -18 9 -24 -7z"/>
<path d="M3200 3246 c0 -2 8 -10 18 -17 15 -13 16 -12 3 4 -13 16 -21 21 -21
13z"/>
<path d="M5898 3073 c12 -2 32 -2 45 0 12 2 2 4 -23 4 -25 0 -35 -2 -22 -4z"/>
<path d="M7630 2980 c0 -12 8 -12 35 0 18 8 17 9 -7 9 -16 1 -28 -3 -28 -9z"/>
<path d="M7490 2970 c0 -5 5 -10 10 -10 6 0 10 5 10 10 0 6 -4 10 -10 10 -5 0
-10 -4 -10 -10z"/>
<path d="M7540 2969 c0 -5 5 -7 10 -4 6 3 10 8 10 11 0 2 -4 4 -10 4 -5 0 -10
-5 -10 -11z"/>
<path d="M5088 2938 c5 -5 16 -8 23 -6 8 3 3 7 -10 11 -17 4 -21 3 -13 -5z"/>
<path d="M7775 2940 c3 -5 8 -10 11 -10 2 0 4 5 4 10 0 6 -5 10 -11 10 -5 0
-7 -4 -4 -10z"/>
<path d="M7698 2933 c-16 -2 -28 -9 -28 -14 0 -6 9 -8 19 -4 11 3 29 8 42 10
12 2 24 7 27 10 6 5 -15 5 -60 -2z"/>
<path d="M5557 2806 c-16 -17 -26 -23 -23 -14 4 15 1 16 -20 8 -32 -12 -37
-12 -29 0 3 6 -1 7 -9 4 -38 -14 -9 -29 77 -40 69 -9 86 -12 97 -19 5 -3 10
-1 10 4 0 6 -5 11 -12 11 -6 0 -20 7 -30 17 -11 9 -18 11 -18 5 0 -7 -11 -12
-25 -12 -14 0 -25 5 -25 11 0 6 9 8 23 4 17 -5 19 -4 7 4 -17 12 -18 12 38 14
23 1 42 0 42 -3 0 -3 9 -6 20 -6 24 0 34 21 11 23 -9 1 -25 2 -36 4 -11 1 -31
-1 -44 -5 -15 -5 -21 -5 -17 2 15 25 -11 16 -37 -12z"/>
<path d="M5415 2810 c-3 -5 -2 -10 4 -10 6 0 8 -8 4 -17 -4 -11 -3 -14 3 -8 5
5 13 12 17 16 4 3 1 11 -7 18 -10 8 -16 9 -21 1z"/>
<path d="M5717 2798 c-7 -5 10 -8 40 -6 29 1 56 -1 59 -5 11 -10 44 -8 44 2 0
6 -8 10 -17 10 -10 0 -39 2 -66 3 -26 2 -53 0 -60 -4z"/>
<path d="M5960 2776 c0 -9 9 -12 25 -8 29 5 28 11 -4 17 -13 2 -21 -1 -21 -9z"/>
<path d="M5670 2750 c0 -5 5 -10 11 -10 5 0 7 5 4 10 -3 6 -8 10 -11 10 -2 0
-4 -4 -4 -10z"/>
<path d="M5720 2658 c0 -4 26 -8 58 -9 31 0 72 -2 90 -4 23 -2 32 1 32 11 0
12 -4 12 -20 4 -11 -6 -20 -7 -20 -3 0 4 -32 8 -70 8 -39 1 -70 -3 -70 -7z"/>
<path d="M5936 2662 c-3 -6 1 -13 10 -16 23 -9 28 -2 10 13 -8 7 -17 8 -20 3z"/>
<path d="M5867 2589 c8 -8 16 -8 30 0 16 9 14 10 -11 11 -22 0 -27 -3 -19 -11z"/>
<path d="M5098 2543 c7 -3 16 -2 19 1 4 3 -2 6 -13 5 -11 0 -14 -3 -6 -6z"/>
<path d="M5333 1805 c0 -8 4 -12 9 -9 5 3 6 10 3 15 -9 13 -12 11 -12 -6z"/>
<path d="M5540 1816 c0 -2 7 -7 16 -10 8 -3 12 -2 9 4 -6 10 -25 14 -25 6z"/>
<path d="M5594 1799 c-3 -6 -2 -15 3 -20 5 -5 9 -1 9 11 0 23 -2 24 -12 9z"/>
<path d="M5927 1803 c-12 -11 -8 -22 11 -32 15 -8 18 -5 19 12 0 12 -1 16 -4
10 -3 -7 -9 -13 -15 -13 -6 0 -8 7 -4 15 6 16 3 19 -7 8z"/>
<path d="M4600 1790 c-9 -6 -10 -10 -3 -10 6 0 15 5 18 10 8 12 4 12 -15 0z"/>
<path d="M5046 1792 c-2 -4 4 -8 14 -8 10 0 16 4 14 8 -3 4 -9 8 -14 8 -5 0
-11 -4 -14 -8z"/>
<path d="M5465 1790 c-3 -6 1 -7 9 -4 18 7 21 14 7 14 -6 0 -13 -4 -16 -10z"/>
<path d="M4510 1776 c7 -7 13 -7 20 0 6 6 3 10 -10 10 -13 0 -16 -4 -10 -10z"/>
<path d="M5545 1780 c3 -5 8 -10 11 -10 2 0 4 5 4 10 0 6 -5 10 -11 10 -5 0
-7 -4 -4 -10z"/>
<path d="M5774 1779 c-10 -17 13 -36 27 -22 12 12 4 33 -11 33 -5 0 -12 -5
-16 -11z m26 -9 c0 -5 -4 -10 -10 -10 -5 0 -10 5 -10 10 0 6 5 10 10 10 6 0
10 -4 10 -10z"/>
<path d="M5826 1768 c1 -13 3 -26 3 -29 1 -4 9 -10 18 -13 14 -6 14 -3 -3 15
-19 22 -19 22 0 15 19 -7 19 -6 1 14 -22 25 -22 25 -19 -2z"/>
<path d="M5850 1786 c0 -2 7 -7 16 -10 8 -3 12 -2 9 4 -6 10 -25 14 -25 6z"/>
<path d="M4920 1770 c-17 -11 -23 -57 -9 -66 6 -3 16 -1 22 5 9 9 8 11 -5 6
-10 -4 -18 -4 -18 0 0 4 8 14 18 21 16 13 16 14 0 8 -10 -3 -18 -3 -18 1 0 4
8 14 18 21 20 15 14 18 -8 4z"/>
<path d="M5135 1770 c-3 -5 0 -12 6 -16 8 -4 9 -3 5 4 -9 15 -1 15 26 1 15 -8
23 -8 32 1 8 8 6 9 -8 4 -11 -4 -17 -3 -14 2 4 5 -5 10 -18 10 -13 1 -26 -2
-29 -6z"/>
<path d="M5335 1770 c-4 -7 -2 -17 4 -23 9 -9 11 -8 6 6 -7 18 10 24 18 7 3
-6 4 -5 3 2 -3 16 -23 21 -31 8z"/>
<path d="M5430 1770 c8 -5 20 -10 25 -10 6 0 3 5 -5 10 -8 5 -19 10 -25 10 -5
0 -3 -5 5 -10z"/>
<path d="M5659 1778 c-6 -20 -5 -78 1 -68 4 7 13 9 20 5 7 -4 6 4 -4 23 -8 16
-12 32 -9 36 4 3 3 6 0 6 -4 0 -7 -1 -8 -2z"/>
<path d="M4610 1766 c0 -2 7 -7 16 -10 8 -3 12 -2 9 4 -6 10 -25 14 -25 6z"/>
<path d="M4860 1761 c0 -5 7 -15 17 -22 15 -13 15 -12 4 9 -12 23 -21 28 -21
13z"/>
<path d="M5045 1760 c-3 -6 1 -7 9 -4 18 7 21 14 7 14 -6 0 -13 -4 -16 -10z"/>
<path d="M5218 1750 c-18 -14 -17 -16 14 -33 l33 -17 -24 20 c-13 11 -21 23
-18 27 4 3 12 1 20 -5 10 -8 16 -7 24 6 9 15 7 18 -10 18 -11 0 -28 -7 -39
-16z"/>
<path d="M5725 1760 c-8 -13 3 -30 18 -29 9 0 9 2 0 6 -7 2 -13 9 -13 15 0 6
7 7 16 4 8 -3 12 -2 9 4 -8 13 -22 13 -30 0z"/>
<path d="M4745 1750 c3 -5 8 -10 11 -10 2 0 4 5 4 10 0 6 -5 10 -11 10 -5 0
-7 -4 -4 -10z"/>
<path d="M4790 1751 c0 -5 7 -12 16 -15 14 -5 15 -4 4 9 -14 17 -20 19 -20 6z"/>
<path d="M5102 1745 c-7 -9 -8 -15 -2 -15 5 0 10 -5 10 -11 0 -6 -7 -8 -17 -4
-14 5 -15 3 -6 -6 16 -16 31 -4 31 26 0 14 -1 25 -2 25 0 -1 -7 -7 -14 -15z"/>
<path d="M5563 1737 c24 -21 15 -35 -10 -16 -16 12 -17 12 -6 -2 7 -9 11 -18
8 -21 -3 -2 4 -4 15 -3 26 2 30 7 36 41 3 22 2 25 -6 14 -9 -13 -10 -13 -10 0
0 13 -2 13 -9 1 -7 -10 -14 -12 -23 -5 -8 5 -5 1 5 -9z"/>
<path d="M5880 1756 c0 -2 7 -7 16 -10 8 -3 12 -2 9 4 -6 10 -25 14 -25 6z"/>
<path d="M4477 1739 c7 -7 15 -10 18 -7 3 3 -2 9 -12 12 -14 6 -15 5 -6 -5z"/>
<path d="M4845 1737 c10 -8 15 -18 12 -23 -3 -5 3 -10 13 -10 18 0 18 2 -2 23
-12 13 -26 23 -32 23 -5 0 -2 -6 9 -13z"/>
<path d="M5294 1732 c-18 -14 -18 -14 0 -8 10 3 25 1 32 -5 18 -15 18 -2 1 15
-11 11 -17 11 -33 -2z"/>
<path d="M5463 1743 c4 -6 3 -13 -2 -15 -5 -1 -3 -9 5 -16 12 -11 13 -9 11 7
-2 11 -7 24 -12 28 -4 5 -5 3 -2 -4z"/>
<path d="M5629 1748 c-5 -19 -8 -50 -4 -46 7 7 15 48 9 48 -2 0 -4 -1 -5 -2z"/>
<path d="M5955 1739 c-4 -6 -4 -13 -1 -16 3 -4 6 -1 6 6 0 8 6 11 16 7 8 -3
12 -2 9 4 -8 13 -22 13 -30 -1z"/>
<path d="M6003 1735 c0 -7 6 -11 14 -8 7 3 13 6 13 8 0 2 -6 5 -13 8 -8 3 -14
-1 -14 -8z"/>
<path d="M4614 1733 c8 -8 56 -11 51 -3 -3 4 -16 8 -30 8 -14 0 -24 -3 -21 -5z"/>
<path d="M5010 1726 c7 -7 13 -7 20 0 6 6 3 10 -10 10 -13 0 -16 -4 -10 -10z"/>
<path d="M5140 1726 c4 -4 16 -4 26 2 16 9 14 10 -8 9 -15 -1 -23 -6 -18 -11z"/>
<path d="M5400 1730 c0 -7 -7 -10 -16 -6 -14 6 -15 4 -4 -9 9 -11 15 -12 20
-5 4 6 15 8 26 4 20 -8 19 -6 -8 15 -14 10 -18 10 -18 1z"/>
<path d="M5775 1724 c21 -21 11 -31 -12 -13 -16 13 -17 12 -5 -2 7 -9 23 -16
36 -16 l23 0 -22 23 c-12 13 -25 24 -29 24 -4 0 0 -7 9 -16z"/>
<path d="M6052 1726 c7 -8 15 -12 17 -11 5 6 -10 25 -20 25 -5 0 -4 -6 3 -14z"/>
<path d="M6092 1724 c10 -10 20 -16 22 -13 3 3 -5 11 -17 18 -21 13 -21 12 -5
-5z"/>
<path d="M4746 1721 c3 -3 19 -6 35 -7 17 -1 28 1 25 4 -3 3 -19 6 -36 7 -17
1 -28 -1 -24 -4z"/>
<path d="M4964 1714 c-18 -14 -18 -15 4 -4 12 6 22 13 22 15 0 8 -5 6 -26 -11z"/>
<path d="M5190 1716 c0 -2 7 -7 16 -10 8 -3 12 -2 9 4 -6 10 -25 14 -25 6z"/>
<path d="M6275 1710 c-3 -6 1 -7 9 -4 18 7 21 14 7 14 -6 0 -13 -4 -16 -10z"/>
<path d="M6080 1700 c0 -5 5 -10 11 -10 5 0 7 5 4 10 -3 6 -8 10 -11 10 -2 0
-4 -4 -4 -10z"/>
<path d="M5435 1690 c-3 -6 1 -7 9 -4 18 7 21 14 7 14 -6 0 -13 -4 -16 -10z"/>
<path d="M5700 1696 c0 -2 7 -9 15 -16 13 -11 14 -10 9 4 -5 14 -24 23 -24 12z"/>
<path d="M5906 1692 c-2 -4 4 -8 14 -8 10 0 16 4 14 8 -3 4 -9 8 -14 8 -5 0
-11 -4 -14 -8z"/>
<path d="M5135 1681 c-3 -5 -2 -12 3 -15 5 -3 9 1 9 9 0 17 -3 19 -12 6z"/>
<path d="M5647 1679 c7 -7 15 -10 18 -7 3 3 -2 9 -12 12 -14 6 -15 5 -6 -5z"/>
</g>
</svg>
